<svg width="1024" height="500" viewBox="0 0 1024 500" fill="none" xmlns="http://www.w3.org/2000/svg">
<rect width="1024" height="500" fill="url(#paint0_linear_82_26)"/>
<path d="M528 409.55V403.25H534.375V381.2C534.375 376.843 535.703 372.971 538.359 369.584C541.016 366.198 544.469 363.98 548.719 362.93V360.725C548.719 359.413 549.184 358.297 550.113 357.378C551.043 356.459 552.172 356 553.5 356C554.828 356 555.957 356.459 556.887 357.378C557.816 358.297 558.281 359.413 558.281 360.725V362.93C562.531 363.98 565.984 366.198 568.641 369.584C571.297 372.971 572.625 376.843 572.625 381.2V403.25H579V409.55H528ZM553.5 419C551.747 419 550.246 418.383 548.998 417.149C547.749 415.916 547.125 414.432 547.125 412.7H559.875C559.875 414.432 559.251 415.916 558.002 417.149C556.754 418.383 555.253 419 553.5 419ZM540.75 403.25H566.25V381.2C566.25 377.735 565.002 374.769 562.505 372.301C560.008 369.834 557.006 368.6 553.5 368.6C549.994 368.6 546.992 369.834 544.495 372.301C541.998 374.769 540.75 377.735 540.75 381.2V403.25Z" fill="white"/>
<path d="M553 189.6C556.523 189.6 559.517 188.375 561.983 185.925C564.449 183.475 565.682 180.5 565.682 177C565.682 173.5 564.449 170.525 561.983 168.075C559.517 165.625 556.523 164.4 553 164.4C549.477 164.4 546.483 165.625 544.017 168.075C541.551 170.525 540.318 173.5 540.318 177C540.318 180.5 541.551 183.475 544.017 185.925C546.483 188.375 549.477 189.6 553 189.6ZM553 184.56C550.886 184.56 549.09 183.825 547.61 182.355C546.131 180.885 545.391 179.1 545.391 177C545.391 174.9 546.131 173.115 547.61 171.645C549.09 170.175 550.886 169.44 553 169.44C555.114 169.44 556.91 170.175 558.39 171.645C559.869 173.115 560.609 174.9 560.609 177C560.609 179.1 559.869 180.885 558.39 182.355C556.91 183.825 555.114 184.56 553 184.56ZM553 198C546.142 198 539.895 196.098 534.259 192.295C528.623 188.492 524.536 183.393 522 177C524.536 170.607 528.623 165.508 534.259 161.705C539.895 157.902 546.142 156 553 156C559.858 156 566.105 157.902 571.741 161.705C577.377 165.508 581.464 170.607 584 177C581.464 183.393 577.377 188.492 571.741 192.295C566.105 196.098 559.858 198 553 198ZM553 192.4C558.308 192.4 563.181 191.012 567.619 188.235C572.058 185.458 575.452 181.713 577.8 177C575.452 172.287 572.058 168.542 567.619 165.765C563.181 162.988 558.308 161.6 553 161.6C547.692 161.6 542.819 162.988 538.381 165.765C533.942 168.542 530.548 172.287 528.2 177C530.548 181.713 533.942 185.458 538.381 188.235C542.819 191.012 547.692 192.4 553 192.4Z" fill="#410F0F"/>
<path d="M553 283.6C556.523 283.6 559.517 282.375 561.983 279.925C564.449 277.475 565.682 274.5 565.682 271C565.682 267.5 564.449 264.525 561.983 262.075C559.517 259.625 556.523 258.4 553 258.4C549.477 258.4 546.483 259.625 544.017 262.075C541.551 264.525 540.318 267.5 540.318 271C540.318 274.5 541.551 277.475 544.017 279.925C546.483 282.375 549.477 283.6 553 283.6ZM553 278.56C550.886 278.56 549.09 277.825 547.61 276.355C546.131 274.885 545.391 273.1 545.391 271C545.391 268.9 546.131 267.115 547.61 265.645C549.09 264.175 550.886 263.44 553 263.44C555.114 263.44 556.91 264.175 558.39 265.645C559.869 267.115 560.609 268.9 560.609 271C560.609 273.1 559.869 274.885 558.39 276.355C556.91 277.825 555.114 278.56 553 278.56ZM553 292C546.142 292 539.895 290.098 534.259 286.295C528.623 282.492 524.536 277.393 522 271C524.536 264.607 528.623 259.508 534.259 255.705C539.895 251.902 546.142 250 553 250C559.858 250 566.105 251.902 571.741 255.705C577.377 259.508 581.464 264.607 584 271C581.464 277.393 577.377 282.492 571.741 286.295C566.105 290.098 559.858 292 553 292ZM553 286.4C558.308 286.4 563.181 285.012 567.619 282.235C572.058 279.458 575.452 275.713 577.8 271C575.452 266.287 572.058 262.542 567.619 259.765C563.181 256.988 558.308 255.6 553 255.6C547.692 255.6 542.819 256.988 538.381 259.765C533.942 262.542 530.548 266.287 528.2 271C530.548 275.713 533.942 279.458 538.381 282.235C542.819 285.012 547.692 286.4 553 286.4Z" fill="#410F0F"/>
<path d="M74.897 93.22L74.657 78.22L69.677 76.66L70.157 73H85.757C85.717 73 85.717 73.04 85.757 73.12C85.837 73.2 85.917 73.38 85.997 73.66C86.117 73.9 86.237 74.2 86.357 74.56C86.597 75.2 86.757 76.26 86.837 77.74C84.797 78.06 83.457 78.26 82.817 78.34L82.697 93.58C82.617 101.22 81.217 106.82 78.497 110.38C75.817 113.94 71.217 115.72 64.697 115.72C58.177 115.72 53.637 114.06 51.077 110.74C48.517 107.42 47.197 102.06 47.117 94.66C47.037 87.22 46.957 81.74 46.877 78.22L41.897 76.66L42.377 73H57.977C57.937 73 57.937 73.04 57.977 73.12C58.057 73.2 58.137 73.38 58.217 73.66C58.337 73.9 58.457 74.2 58.577 74.56C58.817 75.2 58.977 76.26 59.057 77.74C57.017 78.06 55.677 78.26 55.037 78.34L54.857 93.58C54.857 98.02 55.097 101.18 55.577 103.06C56.057 104.9 56.657 106.2 57.377 106.96C58.937 108.56 61.417 109.36 64.817 109.36C68.097 109.36 70.577 108.44 72.257 106.6C73.617 105.12 74.437 102.52 74.717 98.8C74.837 97.32 74.897 95.46 74.897 93.22ZM106.691 115.72C104.371 115.72 101.931 114.96 99.3714 113.44C99.2914 117.68 99.2514 120.88 99.2514 123.04L103.931 123.58C103.931 125.34 103.471 127.08 102.551 128.8H87.6114L87.0714 125.5C89.6314 124.54 91.4314 123.94 92.4714 123.7L91.3314 90.4C89.4514 90.24 87.8714 89.94 86.5914 89.5C86.5914 88.02 86.7314 86.58 87.0114 85.18C88.6914 84.82 92.4114 84.5 98.1714 84.22C98.4914 84.74 98.8514 85.62 99.2514 86.86C103.411 84.82 106.151 83.8 107.471 83.8C111.431 83.8 114.371 85.2 116.291 88C118.211 90.76 119.171 94.48 119.171 99.16C119.171 103.84 118.091 107.78 115.931 110.98C113.811 114.14 110.731 115.72 106.691 115.72ZM99.7314 92.14L99.4914 107.32C100.411 108.16 101.491 108.9 102.731 109.54C104.011 110.14 105.091 110.44 105.971 110.44C109.491 110.44 111.251 107.06 111.251 100.3C111.251 97.78 110.991 95.76 110.471 94.24C109.991 92.72 109.411 91.66 108.731 91.06C108.091 90.42 107.331 90.1 106.451 90.1C104.691 90.1 102.451 90.78 99.7314 92.14ZM136.572 88.78L135.612 88.72C133.372 88.72 131.572 89.5 130.212 91.06C128.892 92.58 128.232 95.16 128.232 98.8C128.232 102.4 128.732 105.14 129.732 107.02C130.772 108.9 132.752 109.84 135.672 109.84C137.032 109.84 139.912 108.92 144.312 107.08C145.312 108.48 145.852 109.94 145.932 111.46C143.732 112.82 141.572 113.88 139.452 114.64C137.372 115.4 135.892 115.78 135.012 115.78C130.092 115.78 126.412 114.44 123.972 111.76C121.532 109.04 120.312 105.24 120.312 100.36C120.312 89.32 125.292 83.8 135.252 83.8C136.972 83.8 138.732 84.02 140.532 84.46C142.372 84.86 143.812 85.38 144.852 86.02C144.732 90.02 144.292 92.92 143.532 94.72C142.212 95.04 140.352 95.2 137.952 95.2L136.572 88.78ZM164.153 88.6C162.713 88.6 161.073 88.96 159.233 89.68C158.713 90.48 158.213 91.9 157.733 93.94C157.293 95.94 157.073 97.96 157.073 100C157.073 103.76 157.633 106.44 158.753 108.04C159.873 109.6 161.673 110.38 164.153 110.38C166.673 110.38 168.493 109.6 169.613 108.04C170.733 106.44 171.293 103.72 171.293 99.88C171.293 96 170.713 93.16 169.553 91.36C168.433 89.52 166.633 88.6 164.153 88.6ZM164.153 83.8C168.833 83.8 172.593 85.24 175.433 88.12C178.313 90.96 179.753 94.94 179.753 100.06C179.753 105.14 178.333 109.02 175.493 111.7C172.653 114.38 168.873 115.72 164.153 115.72C159.433 115.72 155.653 114.38 152.813 111.7C150.013 109.02 148.613 105.14 148.613 100.06C148.613 94.94 150.033 90.96 152.873 88.12C155.713 85.24 159.473 83.8 164.153 83.8ZM222.838 97.66C222.758 94.86 222.418 92.92 221.818 91.84C221.258 90.76 219.938 90.22 217.858 90.22C215.818 90.22 213.918 90.66 212.158 91.54C212.158 96.66 211.898 102.56 211.378 109.24L216.118 109.78C216.118 111.42 215.658 113.16 214.738 115H199.798L199.258 111.7C201.338 110.94 203.158 110.34 204.718 109.9L204.238 97.42C204.158 94.82 203.838 92.98 203.278 91.9C202.758 90.78 201.738 90.22 200.218 90.22C199.418 90.22 198.258 90.36 196.738 90.64C195.218 90.92 194.058 91.22 193.258 91.54C193.258 91.66 193.078 97.56 192.718 109.24L197.398 109.78C197.398 111.54 196.938 113.28 196.018 115H181.078L180.538 111.7C182.898 110.78 184.698 110.18 185.938 109.9L185.158 90.52C183.518 90.36 181.938 90.06 180.418 89.62L180.718 85.3C181.398 85.1 182.858 84.86 185.098 84.58C187.338 84.3 189.038 84.16 190.198 84.16C190.358 84.28 190.658 84.66 191.098 85.3C191.538 85.9 191.838 86.38 191.998 86.74C193.358 86.06 194.998 85.4 196.918 84.76C198.878 84.12 200.078 83.8 200.518 83.8C204.758 83.8 207.858 84.9 209.818 87.1C211.338 86.3 213.178 85.56 215.338 84.88C217.498 84.16 218.838 83.8 219.358 83.8C223.158 83.8 225.998 84.7 227.878 86.5C229.758 88.3 230.698 91.3 230.698 95.5C230.698 97.82 230.518 102.4 230.158 109.24L234.838 109.78C234.838 111.54 234.378 113.28 233.458 115H218.578L218.038 111.7C219.918 110.94 221.638 110.34 223.198 109.9C223.158 108.98 223.118 107.68 223.078 106C222.998 103.24 222.918 100.46 222.838 97.66ZM248.742 84.28C249.502 84.28 249.982 84.3 250.182 84.34C250.182 86.3 249.842 88.12 249.162 89.8C249.002 98.44 248.902 104.92 248.862 109.24L253.542 109.78C253.542 111.42 253.082 113.16 252.162 115H237.222L236.682 111.7C239.162 110.78 240.962 110.18 242.082 109.9L241.422 90.46C239.062 90.22 237.322 89.92 236.202 89.56C236.202 88.56 236.342 87.12 236.622 85.24C238.982 84.6 243.022 84.28 248.742 84.28ZM248.742 72.94C249.102 74.74 249.282 76.12 249.282 77.08C249.282 78 249.202 79.04 249.042 80.2C247.442 80.56 246.082 80.74 244.962 80.74C243.882 80.74 242.562 80.68 241.002 80.56C240.642 78.76 240.462 77.4 240.462 76.48C240.462 75.52 240.542 74.46 240.702 73.3C242.302 72.94 243.642 72.76 244.722 72.76C245.842 72.76 247.182 72.82 248.742 72.94ZM274.699 83.8C278.699 83.8 281.599 84.78 283.399 86.74C285.199 88.7 286.099 91.44 286.099 94.96C286.099 98.48 285.899 103.24 285.499 109.24L290.239 109.78C290.239 111.42 289.779 113.16 288.859 115H273.919L273.379 111.7C275.259 110.94 276.999 110.34 278.599 109.9C278.479 105.3 278.359 101.44 278.239 98.32C278.119 95.16 277.819 93.02 277.339 91.9C276.859 90.78 275.799 90.22 274.159 90.22C271.679 90.22 269.459 90.66 267.499 91.54C267.459 93.26 267.339 96.08 267.139 100C266.979 103.88 266.879 106.96 266.839 109.24L271.519 109.78C271.519 111.42 271.059 113.16 270.139 115H255.199L254.659 111.7C256.659 110.94 258.459 110.34 260.059 109.9C260.019 107.5 259.879 104.18 259.639 99.94C259.439 95.7 259.319 92.56 259.279 90.52C257.799 90.36 256.219 90.06 254.539 89.62L254.839 85.3C257.639 84.54 260.799 84.16 264.319 84.16C264.759 84.44 265.359 85.3 266.119 86.74C267.479 86.06 269.139 85.4 271.099 84.76C273.059 84.12 274.259 83.8 274.699 83.8ZM315.872 104.62C314.552 105.46 313.152 106.08 311.672 106.48C310.192 106.84 308.752 107.02 307.352 107.02C305.992 107.02 304.792 106.88 303.752 106.6C303.312 107.64 302.892 108.42 302.492 108.94C302.812 109.42 306.172 109.66 312.572 109.66C316.572 109.66 319.392 110.28 321.032 111.52C321.792 112.04 322.452 112.86 323.012 113.98C323.612 115.1 323.912 116.54 323.912 118.3C323.912 120.1 323.032 121.9 321.272 123.7C319.512 125.5 317.312 126.92 314.672 127.96C312.032 129 309.412 129.52 306.812 129.52C302.492 129.52 298.992 128.66 296.312 126.94C293.632 125.26 292.292 123.16 292.292 120.64C292.292 120.16 292.992 118.98 294.392 117.1C295.792 115.26 296.712 114.2 297.152 113.92C296.752 113.72 296.052 113.06 295.052 111.94C294.052 110.78 293.492 109.96 293.372 109.48C293.892 108.04 295.492 106.24 298.172 104.08C295.052 102.2 293.492 99.04 293.492 94.6C293.492 91.08 294.692 88.4 297.092 86.56C299.532 84.72 302.732 83.8 306.692 83.8C310.692 83.8 313.712 84.34 315.752 85.42C319.152 84.82 321.552 84.52 322.952 84.52C324.392 84.52 325.332 84.54 325.772 84.58C325.772 85.54 325.532 86.64 325.052 87.88C324.612 89.08 324.192 89.92 323.792 90.4L318.632 89.2C319.632 90.64 320.132 92.5 320.132 94.78C320.132 97.06 319.752 99.06 318.992 100.78C318.232 102.46 317.192 103.74 315.872 104.62ZM315.572 121.78C315.852 121.02 315.992 120.14 315.992 119.14C315.992 118.14 315.552 117.4 314.672 116.92C313.792 116.48 312.752 116.26 311.552 116.26C306.872 116.26 303.772 116.22 302.252 116.14C301.932 116.82 301.532 117.78 301.052 119.02C300.572 120.3 300.332 121.06 300.332 121.3C300.332 121.54 300.492 121.88 300.812 122.32C301.132 122.8 301.812 123.3 302.852 123.82C303.932 124.34 305.232 124.6 306.752 124.6C308.312 124.6 310.132 124.24 312.212 123.52C314.292 122.8 315.412 122.22 315.572 121.78ZM310.712 89.92C309.792 88.84 308.492 88.3 306.812 88.3C305.132 88.3 303.812 88.84 302.852 89.92C301.932 91 301.472 92.58 301.472 94.66C301.472 96.7 301.952 98.3 302.912 99.46C303.872 100.62 305.172 101.2 306.812 101.2C310.372 101.2 312.152 99 312.152 94.6C312.152 92.56 311.672 91 310.712 89.92Z" fill="white"/>
<path d="M402.417 102.76L407.937 73H423.537C423.857 74.72 424.017 75.94 424.017 76.66C422.097 77.34 420.437 77.86 419.037 78.22L423.297 109.24L427.437 109.78C427.437 111.42 426.977 113.16 426.057 115H411.477L410.937 111.7C413.177 110.78 414.857 110.2 415.977 109.96L411.357 85.48L405.237 112.06H399.117L389.637 82.72L384.537 109.24L388.677 109.78C388.677 111.42 388.217 113.16 387.297 115H372.717L372.177 111.7C374.417 110.78 376.097 110.2 377.217 109.96L381.477 78.22L376.497 76.66L376.977 73H393.777L401.817 102.76H402.417ZM447.278 88.6C445.838 88.6 444.198 88.96 442.358 89.68C441.838 90.48 441.338 91.9 440.858 93.94C440.418 95.94 440.198 97.96 440.198 100C440.198 103.76 440.758 106.44 441.878 108.04C442.998 109.6 444.798 110.38 447.278 110.38C449.798 110.38 451.618 109.6 452.738 108.04C453.858 106.44 454.418 103.72 454.418 99.88C454.418 96 453.838 93.16 452.678 91.36C451.558 89.52 449.758 88.6 447.278 88.6ZM447.278 83.8C451.958 83.8 455.718 85.24 458.558 88.12C461.438 90.96 462.878 94.94 462.878 100.06C462.878 105.14 461.458 109.02 458.618 111.7C455.778 114.38 451.998 115.72 447.278 115.72C442.558 115.72 438.778 114.38 435.938 111.7C433.138 109.02 431.738 105.14 431.738 100.06C431.738 94.94 433.158 90.96 435.998 88.12C438.838 85.24 442.598 83.8 447.278 83.8ZM480.103 106L482.323 97.06L485.503 89.38C484.143 89.14 482.463 88.62 480.463 87.82L481.003 84.52H495.943C496.863 86.36 497.323 88.1 497.323 89.74C495.763 89.98 494.203 90.14 492.643 90.22C491.843 92.9 490.263 97.04 487.903 102.64C485.583 108.24 484.023 112.36 483.223 115H475.483L465.943 90.28L461.263 89.74C461.263 88.1 461.723 86.36 462.643 84.52H477.583L478.123 87.82C476.483 88.58 475.103 89.1 473.983 89.38L476.863 97L478.963 106H480.103ZM511.594 84.28C512.354 84.28 512.834 84.3 513.034 84.34C513.034 86.3 512.694 88.12 512.014 89.8C511.854 98.44 511.754 104.92 511.714 109.24L516.394 109.78C516.394 111.42 515.934 113.16 515.014 115H500.074L499.534 111.7C502.014 110.78 503.814 110.18 504.934 109.9L504.274 90.46C501.914 90.22 500.174 89.92 499.054 89.56C499.054 88.56 499.194 87.12 499.474 85.24C501.834 84.6 505.874 84.28 511.594 84.28ZM511.594 72.94C511.954 74.74 512.134 76.12 512.134 77.08C512.134 78 512.054 79.04 511.894 80.2C510.294 80.56 508.934 80.74 507.814 80.74C506.734 80.74 505.414 80.68 503.854 80.56C503.494 78.76 503.314 77.4 503.314 76.48C503.314 75.52 503.394 74.46 503.554 73.3C505.154 72.94 506.494 72.76 507.574 72.76C508.694 72.76 510.034 72.82 511.594 72.94ZM533.531 109.84C534.891 109.84 537.651 108.9 541.811 107.02C542.691 108.3 543.351 109.78 543.791 111.46C541.591 112.82 539.431 113.88 537.311 114.64C535.231 115.36 533.751 115.72 532.871 115.72C528.031 115.72 524.351 114.38 521.831 111.7C519.351 109.02 518.111 105.22 518.111 100.3C518.111 95.34 519.351 91.36 521.831 88.36C524.311 85.32 527.991 83.8 532.871 83.8C536.751 83.8 539.711 85.06 541.751 87.58C543.791 90.1 544.811 93.38 544.811 97.42C544.811 98.26 544.331 99.22 543.371 100.3L526.091 100C526.171 103.2 526.771 105.64 527.891 107.32C529.011 109 530.891 109.84 533.531 109.84ZM532.331 88.78C530.811 88.78 529.391 89.08 528.071 89.68C527.151 91.6 526.571 93.38 526.331 95.02C529.451 94.9 532.991 94.82 536.951 94.78C536.751 90.78 535.211 88.78 532.331 88.78ZM570.354 86.38L570.414 88.24C570.414 91.36 570.174 93.4 569.694 94.36C568.374 94.84 566.534 95.08 564.174 95.08L562.254 89.02C561.734 88.82 561.014 88.72 560.094 88.72C559.174 88.72 558.414 89 557.814 89.56C557.254 90.12 556.974 90.78 556.974 91.54C556.974 92.3 557.274 93 557.874 93.64C558.474 94.24 559.094 94.72 559.734 95.08C560.374 95.44 561.294 95.92 562.494 96.52C563.734 97.08 564.654 97.52 565.254 97.84C565.894 98.16 566.694 98.64 567.654 99.28C568.654 99.92 569.414 100.52 569.934 101.08C571.214 102.6 571.854 104.26 571.854 106.06C571.854 109.14 570.674 111.52 568.314 113.2C565.994 114.88 563.134 115.72 559.734 115.72C557.934 115.72 555.954 115.4 553.794 114.76C551.674 114.12 549.874 113.26 548.394 112.18C548.394 109.3 548.674 106.62 549.234 104.14C550.834 103.94 552.134 103.84 553.134 103.84C554.134 103.84 554.814 103.86 555.174 103.9L555.894 109.72C556.894 110.08 558.094 110.26 559.494 110.26C560.894 110.26 561.994 109.98 562.794 109.42C563.634 108.86 564.054 108.08 564.054 107.08C564.054 106.04 563.594 105.18 562.674 104.5C561.754 103.82 560.494 103.12 558.894 102.4C557.294 101.64 556.054 101.02 555.174 100.54C554.294 100.02 553.354 99.36 552.354 98.56C550.314 97 549.294 95.08 549.294 92.8C549.294 89.96 550.274 87.76 552.234 86.2C554.234 84.6 556.914 83.8 560.274 83.8C563.634 83.8 566.994 84.66 570.354 86.38Z" fill="#410F0F"/>
<path d="M111.75 186L146.5 244.5H198.625L163.875 186H198.625L233.375 244.5H285.5L250.75 186H285.5L320.25 244.5H372.375L337.625 186H389.75C399.306 186 407.487 188.864 414.292 194.592C421.097 200.32 424.5 207.206 424.5 215.25V390.75C424.5 398.794 421.097 405.68 414.292 411.408C407.487 417.136 399.306 420 389.75 420H111.75C102.194 420 94.013 417.136 87.2078 411.408C80.4026 405.68 77 398.794 77 390.75V215.25C77 207.206 80.4026 200.32 87.2078 194.592C94.013 188.864 102.194 186 111.75 186ZM111.75 273.75V390.75H389.75V273.75H111.75Z" fill="white"/>
<path d="M638.533 171.39C638.893 170.15 640.233 165.9 642.553 158.64L639.883 157.83L640.123 156H647.893C648.253 156.72 648.443 157.51 648.463 158.37L646.603 158.64L640.633 177H636.643L630.193 158.64L627.523 157.83L627.763 156H635.533C635.893 156.72 636.083 157.51 636.103 158.37C635.243 158.51 634.653 158.6 634.333 158.64L638.533 171.39ZM656.427 161.64C656.807 161.64 657.047 161.65 657.147 161.67C657.147 162.65 656.977 163.56 656.637 164.4C656.557 168.72 656.507 171.96 656.487 174.12L658.827 174.39C658.827 175.21 658.597 176.08 658.137 177H650.667L650.397 175.35C651.637 174.89 652.537 174.59 653.097 174.45L652.767 164.73C651.587 164.61 650.717 164.46 650.157 164.28C650.157 163.78 650.227 163.06 650.367 162.12C651.547 161.8 653.567 161.64 656.427 161.64ZM656.427 155.97C656.607 156.87 656.697 157.56 656.697 158.04C656.697 158.5 656.657 159.02 656.577 159.6C655.777 159.78 655.097 159.87 654.537 159.87C653.997 159.87 653.337 159.84 652.557 159.78C652.377 158.88 652.287 158.2 652.287 157.74C652.287 157.26 652.327 156.73 652.407 156.15C653.207 155.97 653.877 155.88 654.417 155.88C654.977 155.88 655.647 155.91 656.427 155.97ZM667.395 174.42C668.075 174.42 669.455 173.95 671.535 173.01C671.975 173.65 672.305 174.39 672.525 175.23C671.425 175.91 670.345 176.44 669.285 176.82C668.245 177.18 667.505 177.36 667.065 177.36C664.645 177.36 662.805 176.69 661.545 175.35C660.305 174.01 659.685 172.11 659.685 169.65C659.685 167.17 660.305 165.18 661.545 163.68C662.785 162.16 664.625 161.4 667.065 161.4C669.005 161.4 670.485 162.03 671.505 163.29C672.525 164.55 673.035 166.19 673.035 168.21C673.035 168.63 672.795 169.11 672.315 169.65L663.675 169.5C663.715 171.1 664.015 172.32 664.575 173.16C665.135 174 666.075 174.42 667.395 174.42ZM666.795 163.89C666.035 163.89 665.325 164.04 664.665 164.34C664.205 165.3 663.915 166.19 663.795 167.01C665.355 166.95 667.125 166.91 669.105 166.89C669.005 164.89 668.235 163.89 666.795 163.89ZM684.847 161.76C685.107 161.74 685.607 161.73 686.347 161.73C687.107 161.73 687.787 161.75 688.387 161.79L690.307 167.97L691.237 172.2H691.747L692.617 168.03L693.757 164.19C693.077 164.07 692.237 163.81 691.237 163.41L691.507 161.76H698.977C699.437 162.68 699.667 163.55 699.667 164.37C698.887 164.49 698.107 164.57 697.327 164.61C696.867 166.17 696.157 168.47 695.197 171.51C694.257 174.53 693.687 176.36 693.487 177H689.407L686.617 167.76H686.497L683.617 177H679.747L675.877 164.64L673.537 164.37C673.537 163.55 673.767 162.68 674.227 161.76H681.697L681.967 163.41C681.147 163.79 680.457 164.05 679.897 164.19L680.887 168L681.637 172.2H682.117L682.987 167.97L684.847 161.76ZM721.45 171.54C721.93 171.46 722.29 171.42 722.53 171.42C722.79 171.42 723.34 171.49 724.18 171.63C724.26 171.79 724.37 172.3 724.51 173.16C724.67 174.02 724.75 174.72 724.75 175.26C724.75 175.78 724.69 176.36 724.57 177H710.02L709.75 175.35C710.73 174.95 711.57 174.66 712.27 174.48C712.27 174.42 712.18 169.13 712 158.61L709.51 157.83L709.75 156H717.55C717.53 156 717.53 156.02 717.55 156.06C717.59 156.1 717.63 156.19 717.67 156.33C717.73 156.45 717.79 156.6 717.85 156.78C717.97 157.1 718.05 157.63 718.09 158.37C717.07 158.53 716.4 158.63 716.08 158.67C716 165.57 715.95 170.72 715.93 174.12H720.79L721.45 171.54ZM732.364 161.64C732.744 161.64 732.984 161.65 733.084 161.67C733.084 162.65 732.914 163.56 732.574 164.4C732.494 168.72 732.444 171.96 732.424 174.12L734.764 174.39C734.764 175.21 734.534 176.08 734.074 177H726.604L726.334 175.35C727.574 174.89 728.474 174.59 729.034 174.45L728.704 164.73C727.524 164.61 726.654 164.46 726.094 164.28C726.094 163.78 726.164 163.06 726.304 162.12C727.484 161.8 729.504 161.64 732.364 161.64ZM732.364 155.97C732.544 156.87 732.634 157.56 732.634 158.04C732.634 158.5 732.594 159.02 732.514 159.6C731.714 159.78 731.034 159.87 730.474 159.87C729.934 159.87 729.274 159.84 728.494 159.78C728.314 158.88 728.224 158.2 728.224 157.74C728.224 157.26 728.264 156.73 728.344 156.15C729.144 155.97 729.814 155.88 730.354 155.88C730.914 155.88 731.584 155.91 732.364 155.97ZM746.393 162.69L746.423 163.62C746.423 165.18 746.303 166.2 746.063 166.68C745.403 166.92 744.483 167.04 743.303 167.04L742.343 164.01C742.083 163.91 741.723 163.86 741.263 163.86C740.803 163.86 740.423 164 740.123 164.28C739.843 164.56 739.703 164.89 739.703 165.27C739.703 165.65 739.853 166 740.153 166.32C740.453 166.62 740.763 166.86 741.083 167.04C741.403 167.22 741.863 167.46 742.463 167.76C743.083 168.04 743.543 168.26 743.843 168.42C744.163 168.58 744.563 168.82 745.043 169.14C745.543 169.46 745.923 169.76 746.183 170.04C746.823 170.8 747.143 171.63 747.143 172.53C747.143 174.07 746.553 175.26 745.373 176.1C744.213 176.94 742.783 177.36 741.083 177.36C740.183 177.36 739.193 177.2 738.113 176.88C737.053 176.56 736.153 176.13 735.413 175.59C735.413 174.15 735.553 172.81 735.833 171.57C736.633 171.47 737.283 171.42 737.783 171.42C738.283 171.42 738.623 171.43 738.803 171.45L739.163 174.36C739.663 174.54 740.263 174.63 740.963 174.63C741.663 174.63 742.213 174.49 742.613 174.21C743.033 173.93 743.243 173.54 743.243 173.04C743.243 172.52 743.013 172.09 742.553 171.75C742.093 171.41 741.463 171.06 740.663 170.7C739.863 170.32 739.243 170.01 738.803 169.77C738.363 169.51 737.893 169.18 737.393 168.78C736.373 168 735.863 167.04 735.863 165.9C735.863 164.48 736.353 163.38 737.333 162.6C738.333 161.8 739.673 161.4 741.353 161.4C743.033 161.4 744.713 161.83 746.393 162.69ZM752.547 177.36L751.887 177.33C751.767 177.11 751.607 176.7 751.407 176.1C751.207 175.5 751.097 175.05 751.077 174.75C750.977 172.77 750.867 169.34 750.747 164.46H748.647L748.737 162.75C749.197 162.43 749.747 162.14 750.387 161.88L752.817 158.04C753.597 158.12 754.207 158.33 754.647 158.67L754.617 161.52C755.877 161.56 757.047 161.68 758.127 161.88C758.127 162.68 757.877 163.54 757.377 164.46H754.587C754.507 168.66 754.457 171.81 754.437 173.91C755.237 173.99 756.327 174.22 757.707 174.6L757.677 176.16C757.337 176.38 756.577 176.64 755.397 176.94C754.237 177.22 753.287 177.36 752.547 177.36ZM764.057 173.19C764.237 173.91 764.327 174.53 764.327 175.05C764.327 175.55 764.297 176.12 764.237 176.76C763.557 176.94 762.907 177.03 762.287 177.03C761.667 177.03 760.987 177 760.247 176.94C760.047 176.14 759.947 175.56 759.947 175.2C759.947 174.82 759.987 174.21 760.067 173.37C760.727 173.19 761.357 173.1 761.957 173.1C762.577 173.1 763.277 173.13 764.057 173.19Z" fill="#410F0F"/>
<path d="M638.43 359C641.93 359 644.25 359.5 645.39 360.5C646.43 361.4 646.95 362.79 646.95 364.67C646.95 367.59 645.43 369.58 642.39 370.64L646.71 377.15L649.29 377.42C649.29 378.28 649.06 379.14 648.6 380H644.25L638.37 371.03H637.41L637.32 377.15L639.51 377.39C639.51 378.21 639.28 379.08 638.82 380H631.41L631.14 378.35C632.34 377.87 633.18 377.58 633.66 377.48C633.62 375.02 633.57 372.05 633.51 368.57C633.45 365.09 633.41 362.76 633.39 361.58L630.9 360.83C630.92 360.37 631.01 359.76 631.17 359H638.43ZM640.8 362.21C640.18 362.07 639.35 362 638.31 362H637.47C637.43 364.76 637.41 366.83 637.41 368.21L638.88 368.18C640.06 368.16 640.99 367.92 641.67 367.46C642.37 366.98 642.72 366.06 642.72 364.7C642.72 363.34 642.08 362.51 640.8 362.21ZM658.598 377.42C659.278 377.42 660.658 376.95 662.738 376.01C663.178 376.65 663.508 377.39 663.728 378.23C662.628 378.91 661.548 379.44 660.488 379.82C659.448 380.18 658.708 380.36 658.268 380.36C655.848 380.36 654.008 379.69 652.748 378.35C651.508 377.01 650.888 375.11 650.888 372.65C650.888 370.17 651.508 368.18 652.748 366.68C653.988 365.16 655.828 364.4 658.268 364.4C660.208 364.4 661.688 365.03 662.708 366.29C663.728 367.55 664.238 369.19 664.238 371.21C664.238 371.63 663.998 372.11 663.518 372.65L654.878 372.5C654.918 374.1 655.218 375.32 655.778 376.16C656.338 377 657.278 377.42 658.598 377.42ZM657.998 366.89C657.238 366.89 656.528 367.04 655.868 367.34C655.408 368.3 655.118 369.19 654.998 370.01C656.558 369.95 658.328 369.91 660.308 369.89C660.208 367.89 659.438 366.89 657.998 366.89ZM674.249 366.89L673.769 366.86C672.649 366.86 671.749 367.25 671.069 368.03C670.409 368.79 670.079 370.08 670.079 371.9C670.079 373.7 670.329 375.07 670.829 376.01C671.349 376.95 672.339 377.42 673.799 377.42C674.479 377.42 675.919 376.96 678.119 376.04C678.619 376.74 678.889 377.47 678.929 378.23C677.829 378.91 676.749 379.44 675.689 379.82C674.649 380.2 673.909 380.39 673.469 380.39C671.009 380.39 669.169 379.72 667.949 378.38C666.729 377.02 666.119 375.12 666.119 372.68C666.119 367.16 668.609 364.4 673.589 364.4C674.449 364.4 675.329 364.51 676.229 364.73C677.149 364.93 677.869 365.19 678.389 365.51C678.329 367.51 678.109 368.96 677.729 369.86C677.069 370.02 676.139 370.1 674.939 370.1L674.249 366.89ZM688.099 377.42C688.779 377.42 690.159 376.95 692.239 376.01C692.679 376.65 693.009 377.39 693.229 378.23C692.129 378.91 691.049 379.44 689.989 379.82C688.949 380.18 688.209 380.36 687.769 380.36C685.349 380.36 683.509 379.69 682.249 378.35C681.009 377.01 680.389 375.11 680.389 372.65C680.389 370.17 681.009 368.18 682.249 366.68C683.489 365.16 685.329 364.4 687.769 364.4C689.709 364.4 691.189 365.03 692.209 366.29C693.229 367.55 693.739 369.19 693.739 371.21C693.739 371.63 693.499 372.11 693.019 372.65L684.379 372.5C684.419 374.1 684.719 375.32 685.279 376.16C685.839 377 686.779 377.42 688.099 377.42ZM687.499 366.89C686.739 366.89 686.029 367.04 685.369 367.34C684.909 368.3 684.619 369.19 684.499 370.01C686.059 369.95 687.829 369.91 689.809 369.89C689.709 367.89 688.939 366.89 687.499 366.89ZM701.711 364.64C702.091 364.64 702.331 364.65 702.431 364.67C702.431 365.65 702.261 366.56 701.921 367.4C701.841 371.72 701.791 374.96 701.771 377.12L704.111 377.39C704.111 378.21 703.881 379.08 703.421 380H695.951L695.681 378.35C696.921 377.89 697.821 377.59 698.381 377.45L698.051 367.73C696.871 367.61 696.001 367.46 695.441 367.28C695.441 366.78 695.511 366.06 695.651 365.12C696.831 364.8 698.851 364.64 701.711 364.64ZM701.711 358.97C701.891 359.87 701.981 360.56 701.981 361.04C701.981 361.5 701.941 362.02 701.861 362.6C701.061 362.78 700.381 362.87 699.821 362.87C699.281 362.87 698.621 362.84 697.841 362.78C697.661 361.88 697.571 361.2 697.571 360.74C697.571 360.26 697.611 359.73 697.691 359.15C698.491 358.97 699.161 358.88 699.701 358.88C700.261 358.88 700.931 358.91 701.711 358.97ZM712.89 375.5L714 371.03L715.59 367.19C714.91 367.07 714.07 366.81 713.07 366.41L713.34 364.76H720.81C721.27 365.68 721.5 366.55 721.5 367.37C720.72 367.49 719.94 367.57 719.16 367.61C718.76 368.95 717.97 371.02 716.79 373.82C715.63 376.62 714.85 378.68 714.45 380H710.58L705.81 367.64L703.47 367.37C703.47 366.55 703.7 365.68 704.16 364.76H711.63L711.9 366.41C711.08 366.79 710.39 367.05 709.83 367.19L711.27 371L712.32 375.5H712.89ZM730.375 377.42C731.055 377.42 732.435 376.95 734.515 376.01C734.955 376.65 735.285 377.39 735.505 378.23C734.405 378.91 733.325 379.44 732.265 379.82C731.225 380.18 730.485 380.36 730.045 380.36C727.625 380.36 725.785 379.69 724.525 378.35C723.285 377.01 722.665 375.11 722.665 372.65C722.665 370.17 723.285 368.18 724.525 366.68C725.765 365.16 727.605 364.4 730.045 364.4C731.985 364.4 733.465 365.03 734.485 366.29C735.505 367.55 736.015 369.19 736.015 371.21C736.015 371.63 735.775 372.11 735.295 372.65L726.655 372.5C726.695 374.1 726.995 375.32 727.555 376.16C728.115 377 729.055 377.42 730.375 377.42ZM729.775 366.89C729.015 366.89 728.305 367.04 727.645 367.34C727.185 368.3 726.895 369.19 726.775 370.01C728.335 369.95 730.105 369.91 732.085 369.89C731.985 367.89 731.215 366.89 729.775 366.89ZM765.909 361.67L765.819 380H761.979L752.079 363.86C751.999 369.72 751.949 374.14 751.929 377.12L753.999 377.39C753.999 378.21 753.769 379.08 753.309 380H746.019L745.749 378.35C746.869 377.89 747.709 377.6 748.269 377.48C748.269 377.42 748.179 372.13 747.999 361.61L745.509 360.83L745.749 359H753.549L762.279 374.66L761.829 361.61L759.339 360.83L759.579 359H767.379C767.359 359 767.359 359.02 767.379 359.06C767.419 359.1 767.459 359.19 767.499 359.33C767.559 359.45 767.619 359.6 767.679 359.78C767.799 360.1 767.879 360.63 767.919 361.37C766.899 361.53 766.229 361.63 765.909 361.67ZM777.014 366.8C776.294 366.8 775.474 366.98 774.554 367.34C774.294 367.74 774.044 368.45 773.804 369.47C773.584 370.47 773.474 371.48 773.474 372.5C773.474 374.38 773.754 375.72 774.314 376.52C774.874 377.3 775.774 377.69 777.014 377.69C778.274 377.69 779.184 377.3 779.744 376.52C780.304 375.72 780.584 374.36 780.584 372.44C780.584 370.5 780.294 369.08 779.714 368.18C779.154 367.26 778.254 366.8 777.014 366.8ZM777.014 364.4C779.354 364.4 781.234 365.12 782.654 366.56C784.094 367.98 784.814 369.97 784.814 372.53C784.814 375.07 784.104 377.01 782.684 378.35C781.264 379.69 779.374 380.36 777.014 380.36C774.654 380.36 772.764 379.69 771.344 378.35C769.944 377.01 769.244 375.07 769.244 372.53C769.244 369.97 769.954 367.98 771.374 366.56C772.794 365.12 774.674 364.4 777.014 364.4ZM788.867 380.36L788.207 380.33C788.087 380.11 787.927 379.7 787.727 379.1C787.527 378.5 787.417 378.05 787.397 377.75C787.297 375.77 787.187 372.34 787.067 367.46H784.967L785.057 365.75C785.517 365.43 786.067 365.14 786.707 364.88L789.137 361.04C789.917 361.12 790.527 361.33 790.967 361.67L790.937 364.52C792.197 364.56 793.367 364.68 794.447 364.88C794.447 365.68 794.197 366.54 793.697 367.46H790.907C790.827 371.66 790.777 374.81 790.757 376.91C791.557 376.99 792.647 377.22 794.027 377.6L793.997 379.16C793.657 379.38 792.897 379.64 791.717 379.94C790.557 380.22 789.607 380.36 788.867 380.36ZM801.906 364.64C802.286 364.64 802.526 364.65 802.626 364.67C802.626 365.65 802.456 366.56 802.116 367.4C802.036 371.72 801.986 374.96 801.966 377.12L804.306 377.39C804.306 378.21 804.076 379.08 803.616 380H796.146L795.876 378.35C797.116 377.89 798.016 377.59 798.576 377.45L798.246 367.73C797.066 367.61 796.196 367.46 795.636 367.28C795.636 366.78 795.706 366.06 795.846 365.12C797.026 364.8 799.046 364.64 801.906 364.64ZM801.906 358.97C802.086 359.87 802.176 360.56 802.176 361.04C802.176 361.5 802.136 362.02 802.056 362.6C801.256 362.78 800.576 362.87 800.016 362.87C799.476 362.87 798.816 362.84 798.036 362.78C797.856 361.88 797.766 361.2 797.766 360.74C797.766 360.26 797.806 359.73 797.886 359.15C798.686 358.97 799.356 358.88 799.896 358.88C800.456 358.88 801.126 358.91 801.906 358.97ZM813.085 360.32L812.545 360.29C811.905 360.29 811.455 360.61 811.195 361.25C810.935 361.87 810.795 362.96 810.775 364.52C811.975 364.54 812.915 364.63 813.595 364.79C813.635 364.79 813.875 364.82 814.315 364.88C814.255 365.78 814.015 366.64 813.595 367.46H810.775C810.695 371.74 810.645 374.95 810.625 377.09C812.605 377.23 813.705 377.41 813.925 377.63C813.925 378.29 813.675 379.08 813.175 380H804.835L804.565 378.35C806.125 377.79 807.025 377.49 807.265 377.45L806.935 367.46H804.835L804.925 365.75C805.445 365.39 806.115 365.13 806.935 364.97V364.16C806.935 361.8 807.395 360.08 808.315 359C809.155 358.02 810.375 357.53 811.975 357.53C813.595 357.53 815.305 357.97 817.105 358.85L817.135 359.33C817.135 360.43 816.995 361.66 816.715 363.02C816.115 363.18 815.565 363.26 815.065 363.26C814.565 363.26 814.195 363.24 813.955 363.2L813.085 360.32ZM822.18 364.64C822.56 364.64 822.8 364.65 822.9 364.67C822.9 365.65 822.73 366.56 822.39 367.4C822.31 371.72 822.26 374.96 822.24 377.12L824.58 377.39C824.58 378.21 824.35 379.08 823.89 380H816.42L816.15 378.35C817.39 377.89 818.29 377.59 818.85 377.45L818.52 367.73C817.34 367.61 816.47 367.46 815.91 367.28C815.91 366.78 815.98 366.06 816.12 365.12C817.3 364.8 819.32 364.64 822.18 364.64ZM822.18 358.97C822.36 359.87 822.45 360.56 822.45 361.04C822.45 361.5 822.41 362.02 822.33 362.6C821.53 362.78 820.85 362.87 820.29 362.87C819.75 362.87 819.09 362.84 818.31 362.78C818.13 361.88 818.04 361.2 818.04 360.74C818.04 360.26 818.08 359.73 818.16 359.15C818.96 358.97 819.63 358.88 820.17 358.88C820.73 358.88 821.4 358.91 822.18 358.97ZM833.448 366.89L832.968 366.86C831.848 366.86 830.948 367.25 830.268 368.03C829.608 368.79 829.278 370.08 829.278 371.9C829.278 373.7 829.528 375.07 830.028 376.01C830.548 376.95 831.538 377.42 832.998 377.42C833.678 377.42 835.118 376.96 837.318 376.04C837.818 376.74 838.088 377.47 838.128 378.23C837.028 378.91 835.948 379.44 834.888 379.82C833.848 380.2 833.108 380.39 832.668 380.39C830.208 380.39 828.368 379.72 827.148 378.38C825.928 377.02 825.318 375.12 825.318 372.68C825.318 367.16 827.808 364.4 832.788 364.4C833.648 364.4 834.528 364.51 835.428 364.73C836.348 364.93 837.068 365.19 837.588 365.51C837.528 367.51 837.308 368.96 836.928 369.86C836.268 370.02 835.338 370.1 834.138 370.1L833.448 366.89ZM844.959 380.36C843.259 380.36 841.939 380.01 840.999 379.31C840.079 378.61 839.619 377.43 839.619 375.77C839.619 374.19 840.169 372.9 841.269 371.9C841.909 371.32 842.799 370.98 843.939 370.88C845.079 370.78 846.649 370.73 848.649 370.73V370.25C848.649 369.03 848.449 368.14 848.049 367.58C847.669 367 846.989 366.71 846.009 366.71C845.509 366.71 845.059 366.81 844.659 367.01L843.939 369.62L841.719 369.56C841.219 368.8 840.949 367.59 840.909 365.93C841.309 365.73 842.249 365.43 843.729 365.03C845.209 364.61 846.159 364.4 846.579 364.4C848.739 364.4 850.309 364.85 851.289 365.75C852.269 366.63 852.759 368.04 852.759 369.98C852.759 371.9 852.669 374.44 852.489 377.6C853.629 377.7 854.509 377.87 855.129 378.11C855.149 378.35 855.159 378.64 855.159 378.98L855.129 379.64C853.689 380.12 852.239 380.36 850.779 380.36C850.399 380.36 850.119 380.35 849.939 380.33C849.639 379.73 849.459 379.01 849.399 378.17H849.249C848.869 378.53 848.199 378.99 847.239 379.55C846.299 380.09 845.539 380.36 844.959 380.36ZM843.459 375.95C843.459 376.61 843.659 377.1 844.059 377.42C844.479 377.72 844.949 377.87 845.469 377.87C845.989 377.87 846.609 377.64 847.329 377.18C848.049 376.7 848.629 376.27 849.069 375.89L848.919 373.13C847.339 373.21 846.149 373.36 845.349 373.58C844.089 373.84 843.459 374.63 843.459 375.95ZM859.121 380.36L858.461 380.33C858.341 380.11 858.181 379.7 857.981 379.1C857.781 378.5 857.671 378.05 857.651 377.75C857.551 375.77 857.441 372.34 857.321 367.46H855.221L855.311 365.75C855.771 365.43 856.321 365.14 856.961 364.88L859.391 361.04C860.171 361.12 860.781 361.33 861.221 361.67L861.191 364.52C862.451 364.56 863.621 364.68 864.701 364.88C864.701 365.68 864.451 366.54 863.951 367.46H861.161C861.081 371.66 861.031 374.81 861.011 376.91C861.811 376.99 862.901 377.22 864.281 377.6L864.251 379.16C863.911 379.38 863.151 379.64 861.971 379.94C860.811 380.22 859.861 380.36 859.121 380.36ZM872.16 364.64C872.54 364.64 872.78 364.65 872.88 364.67C872.88 365.65 872.71 366.56 872.37 367.4C872.29 371.72 872.24 374.96 872.22 377.12L874.56 377.39C874.56 378.21 874.33 379.08 873.87 380H866.4L866.13 378.35C867.37 377.89 868.27 377.59 868.83 377.45L868.5 367.73C867.32 367.61 866.45 367.46 865.89 367.28C865.89 366.78 865.96 366.06 866.1 365.12C867.28 364.8 869.3 364.64 872.16 364.64ZM872.16 358.97C872.34 359.87 872.43 360.56 872.43 361.04C872.43 361.5 872.39 362.02 872.31 362.6C871.51 362.78 870.83 362.87 870.27 362.87C869.73 362.87 869.07 362.84 868.29 362.78C868.11 361.88 868.02 361.2 868.02 360.74C868.02 360.26 868.06 359.73 868.14 359.15C868.94 358.97 869.61 358.88 870.15 358.88C870.71 358.88 871.38 358.91 872.16 358.97ZM883.069 366.8C882.349 366.8 881.529 366.98 880.609 367.34C880.349 367.74 880.099 368.45 879.859 369.47C879.639 370.47 879.529 371.48 879.529 372.5C879.529 374.38 879.809 375.72 880.369 376.52C880.929 377.3 881.829 377.69 883.069 377.69C884.329 377.69 885.239 377.3 885.799 376.52C886.359 375.72 886.639 374.36 886.639 372.44C886.639 370.5 886.349 369.08 885.769 368.18C885.209 367.26 884.309 366.8 883.069 366.8ZM883.069 364.4C885.409 364.4 887.289 365.12 888.709 366.56C890.149 367.98 890.869 369.97 890.869 372.53C890.869 375.07 890.159 377.01 888.739 378.35C887.319 379.69 885.429 380.36 883.069 380.36C880.709 380.36 878.819 379.69 877.399 378.35C875.999 377.01 875.299 375.07 875.299 372.53C875.299 369.97 876.009 367.98 877.429 366.56C878.849 365.12 880.729 364.4 883.069 364.4ZM901.281 364.4C903.281 364.4 904.731 364.89 905.631 365.87C906.531 366.85 906.981 368.22 906.981 369.98C906.981 371.74 906.881 374.12 906.681 377.12L909.051 377.39C909.051 378.21 908.821 379.08 908.361 380H900.891L900.621 378.35C901.561 377.97 902.431 377.67 903.231 377.45C903.171 375.15 903.111 373.22 903.051 371.66C902.991 370.08 902.841 369.01 902.601 368.45C902.361 367.89 901.831 367.61 901.011 367.61C899.771 367.61 898.661 367.83 897.681 368.27C897.661 369.13 897.601 370.54 897.501 372.5C897.421 374.44 897.371 375.98 897.351 377.12L899.691 377.39C899.691 378.21 899.461 379.08 899.001 380H891.531L891.261 378.35C892.261 377.97 893.161 377.67 893.961 377.45C893.941 376.25 893.871 374.59 893.751 372.47C893.651 370.35 893.591 368.78 893.571 367.76C892.831 367.68 892.041 367.53 891.201 367.31L891.351 365.15C892.751 364.77 894.331 364.58 896.091 364.58C896.311 364.72 896.611 365.15 896.991 365.87C897.671 365.53 898.501 365.2 899.481 364.88C900.461 364.56 901.061 364.4 901.281 364.4ZM920.818 365.69L920.848 366.62C920.848 368.18 920.728 369.2 920.488 369.68C919.828 369.92 918.908 370.04 917.728 370.04L916.768 367.01C916.508 366.91 916.148 366.86 915.688 366.86C915.228 366.86 914.848 367 914.548 367.28C914.268 367.56 914.128 367.89 914.128 368.27C914.128 368.65 914.278 369 914.578 369.32C914.878 369.62 915.188 369.86 915.508 370.04C915.828 370.22 916.288 370.46 916.888 370.76C917.508 371.04 917.968 371.26 918.268 371.42C918.588 371.58 918.988 371.82 919.468 372.14C919.968 372.46 920.348 372.76 920.608 373.04C921.248 373.8 921.568 374.63 921.568 375.53C921.568 377.07 920.978 378.26 919.798 379.1C918.638 379.94 917.208 380.36 915.508 380.36C914.608 380.36 913.618 380.2 912.538 379.88C911.478 379.56 910.578 379.13 909.838 378.59C909.838 377.15 909.978 375.81 910.258 374.57C911.058 374.47 911.708 374.42 912.208 374.42C912.708 374.42 913.048 374.43 913.228 374.45L913.588 377.36C914.088 377.54 914.688 377.63 915.388 377.63C916.088 377.63 916.638 377.49 917.038 377.21C917.458 376.93 917.668 376.54 917.668 376.04C917.668 375.52 917.438 375.09 916.978 374.75C916.518 374.41 915.888 374.06 915.088 373.7C914.288 373.32 913.668 373.01 913.228 372.77C912.788 372.51 912.318 372.18 911.818 371.78C910.798 371 910.288 370.04 910.288 368.9C910.288 367.48 910.778 366.38 911.758 365.6C912.758 364.8 914.098 364.4 915.778 364.4C917.458 364.4 919.138 364.83 920.818 365.69ZM939.055 366.8C938.335 366.8 937.515 366.98 936.595 367.34C936.335 367.74 936.085 368.45 935.845 369.47C935.625 370.47 935.515 371.48 935.515 372.5C935.515 374.38 935.795 375.72 936.355 376.52C936.915 377.3 937.815 377.69 939.055 377.69C940.315 377.69 941.225 377.3 941.785 376.52C942.345 375.72 942.625 374.36 942.625 372.44C942.625 370.5 942.335 369.08 941.755 368.18C941.195 367.26 940.295 366.8 939.055 366.8ZM939.055 364.4C941.395 364.4 943.275 365.12 944.695 366.56C946.135 367.98 946.855 369.97 946.855 372.53C946.855 375.07 946.145 377.01 944.725 378.35C943.305 379.69 941.415 380.36 939.055 380.36C936.695 380.36 934.805 379.69 933.385 378.35C931.985 377.01 931.285 375.07 931.285 372.53C931.285 369.97 931.995 367.98 933.415 366.56C934.835 365.12 936.715 364.4 939.055 364.4ZM955.468 360.32L954.928 360.29C954.288 360.29 953.838 360.61 953.578 361.25C953.318 361.87 953.178 362.96 953.158 364.52C954.358 364.54 955.298 364.63 955.978 364.79C956.018 364.79 956.258 364.82 956.698 364.88C956.638 365.78 956.398 366.64 955.978 367.46H953.158C953.078 371.74 953.028 374.95 953.008 377.09C954.988 377.23 956.088 377.41 956.308 377.63C956.308 378.29 956.058 379.08 955.558 380H947.218L946.948 378.35C948.508 377.79 949.408 377.49 949.648 377.45L949.318 367.46H947.218L947.308 365.75C947.828 365.39 948.498 365.13 949.318 364.97V364.16C949.318 361.8 949.778 360.08 950.698 359C951.538 358.02 952.758 357.53 954.358 357.53C955.978 357.53 957.688 357.97 959.488 358.85L959.518 359.33C959.518 360.43 959.378 361.66 959.098 363.02C958.498 363.18 957.948 363.26 957.448 363.26C956.948 363.26 956.578 363.24 956.338 363.2L955.468 360.32ZM663.085 399.32L662.545 399.29C661.905 399.29 661.455 399.61 661.195 400.25C660.935 400.87 660.795 401.96 660.775 403.52C661.975 403.54 662.915 403.63 663.595 403.79C663.635 403.79 663.875 403.82 664.315 403.88C664.255 404.78 664.015 405.64 663.595 406.46H660.775C660.695 410.74 660.645 413.95 660.625 416.09C662.605 416.23 663.705 416.41 663.925 416.63C663.925 417.29 663.675 418.08 663.175 419H654.835L654.565 417.35C656.125 416.79 657.025 416.49 657.265 416.45L656.935 406.46H654.835L654.925 404.75C655.445 404.39 656.115 404.13 656.935 403.97V403.16C656.935 400.8 657.395 399.08 658.315 398C659.155 397.02 660.375 396.53 661.975 396.53C663.595 396.53 665.305 396.97 667.105 397.85L667.135 398.33C667.135 399.43 666.995 400.66 666.715 402.02C666.115 402.18 665.565 402.26 665.065 402.26C664.565 402.26 664.195 402.24 663.955 402.2L663.085 399.32ZM673.92 416.42C674.6 416.42 675.98 415.95 678.06 415.01C678.5 415.65 678.83 416.39 679.05 417.23C677.95 417.91 676.87 418.44 675.81 418.82C674.77 419.18 674.03 419.36 673.59 419.36C671.17 419.36 669.33 418.69 668.07 417.35C666.83 416.01 666.21 414.11 666.21 411.65C666.21 409.17 666.83 407.18 668.07 405.68C669.31 404.16 671.15 403.4 673.59 403.4C675.53 403.4 677.01 404.03 678.03 405.29C679.05 406.55 679.56 408.19 679.56 410.21C679.56 410.63 679.32 411.11 678.84 411.65L670.2 411.5C670.24 413.1 670.54 414.32 671.1 415.16C671.66 416 672.6 416.42 673.92 416.42ZM673.32 405.89C672.56 405.89 671.85 406.04 671.19 406.34C670.73 407.3 670.44 408.19 670.32 409.01C671.88 408.95 673.65 408.91 675.63 408.89C675.53 406.89 674.76 405.89 673.32 405.89ZM686.931 419.36C685.231 419.36 683.911 419.01 682.971 418.31C682.051 417.61 681.591 416.43 681.591 414.77C681.591 413.19 682.141 411.9 683.241 410.9C683.881 410.32 684.771 409.98 685.911 409.88C687.051 409.78 688.621 409.73 690.621 409.73V409.25C690.621 408.03 690.421 407.14 690.021 406.58C689.641 406 688.961 405.71 687.981 405.71C687.481 405.71 687.031 405.81 686.631 406.01L685.911 408.62L683.691 408.56C683.191 407.8 682.921 406.59 682.881 404.93C683.281 404.73 684.221 404.43 685.701 404.03C687.181 403.61 688.131 403.4 688.551 403.4C690.711 403.4 692.281 403.85 693.261 404.75C694.241 405.63 694.731 407.04 694.731 408.98C694.731 410.9 694.641 413.44 694.461 416.6C695.601 416.7 696.481 416.87 697.101 417.11C697.121 417.35 697.131 417.64 697.131 417.98L697.101 418.64C695.661 419.12 694.211 419.36 692.751 419.36C692.371 419.36 692.091 419.35 691.911 419.33C691.611 418.73 691.431 418.01 691.371 417.17H691.221C690.841 417.53 690.171 417.99 689.211 418.55C688.271 419.09 687.511 419.36 686.931 419.36ZM685.431 414.95C685.431 415.61 685.631 416.1 686.031 416.42C686.451 416.72 686.921 416.87 687.441 416.87C687.961 416.87 688.581 416.64 689.301 416.18C690.021 415.7 690.601 415.27 691.041 414.89L690.891 412.13C689.311 412.21 688.121 412.36 687.321 412.58C686.061 412.84 685.431 413.63 685.431 414.95ZM701.093 419.36L700.433 419.33C700.313 419.11 700.153 418.7 699.953 418.1C699.753 417.5 699.643 417.05 699.623 416.75C699.523 414.77 699.413 411.34 699.293 406.46H697.193L697.283 404.75C697.743 404.43 698.293 404.14 698.933 403.88L701.363 400.04C702.143 400.12 702.753 400.33 703.193 400.67L703.163 403.52C704.423 403.56 705.593 403.68 706.673 403.88C706.673 404.68 706.423 405.54 705.923 406.46H703.133C703.053 410.66 703.003 413.81 702.983 415.91C703.783 415.99 704.873 416.22 706.253 416.6L706.223 418.16C705.883 418.38 705.123 418.64 703.943 418.94C702.783 419.22 701.833 419.36 701.093 419.36ZM722.233 403.64C722.613 403.64 722.853 403.65 722.953 403.67C722.953 404.69 722.783 405.57 722.443 406.31C722.323 410.71 722.223 413.96 722.143 416.06C723.043 416.14 723.833 416.29 724.513 416.51L724.453 418.61C723.233 418.99 722.183 419.18 721.303 419.18C720.423 419.18 719.823 419.16 719.503 419.12C719.263 418.64 719.063 418.16 718.903 417.68C717.243 418.8 716.043 419.36 715.303 419.36C711.723 419.36 709.933 417.55 709.933 413.93C709.933 412.95 710.013 410.54 710.173 406.7C709.113 406.7 708.143 406.56 707.263 406.28C707.263 405.78 707.333 405.06 707.473 404.12C708.653 403.8 710.673 403.64 713.533 403.64C713.913 403.64 714.153 403.65 714.253 403.67C714.253 404.65 714.083 405.56 713.743 406.4V412.46C713.743 413.74 713.873 414.68 714.133 415.28C714.413 415.86 714.993 416.15 715.873 416.15C716.773 416.15 717.693 415.84 718.633 415.22L718.453 406.7C717.573 406.66 716.743 406.52 715.963 406.28C715.963 405.78 716.033 405.06 716.173 404.12C717.353 403.8 719.373 403.64 722.233 403.64ZM734.585 406.64C734.545 406.54 734.345 406.49 733.985 406.49C733.625 406.49 733.005 406.76 732.125 407.3C732.045 411.22 731.995 414.16 731.975 416.12L734.315 416.42C734.315 417.28 734.085 418.14 733.625 419H726.155L725.885 417.35C727.125 416.89 728.025 416.59 728.585 416.45L728.255 406.73C727.215 406.65 726.345 406.5 725.645 406.28L725.855 404.12C726.395 403.88 728.345 403.72 731.705 403.64C731.885 403.82 731.975 404.17 731.975 404.69C733.735 403.83 734.845 403.4 735.305 403.4C735.785 403.4 736.365 403.52 737.045 403.76C737.745 403.98 738.275 404.22 738.635 404.48V404.99C738.635 406.63 738.435 408.15 738.035 409.55C737.695 409.69 737.245 409.76 736.685 409.76C736.125 409.76 735.605 409.73 735.125 409.67C735.065 409.41 734.885 408.4 734.585 406.64ZM747.191 416.42C747.871 416.42 749.251 415.95 751.331 415.01C751.771 415.65 752.101 416.39 752.321 417.23C751.221 417.91 750.141 418.44 749.081 418.82C748.041 419.18 747.301 419.36 746.861 419.36C744.441 419.36 742.601 418.69 741.341 417.35C740.101 416.01 739.481 414.11 739.481 411.65C739.481 409.17 740.101 407.18 741.341 405.68C742.581 404.16 744.421 403.4 746.861 403.4C748.801 403.4 750.281 404.03 751.301 405.29C752.321 406.55 752.831 408.19 752.831 410.21C752.831 410.63 752.591 411.11 752.111 411.65L743.471 411.5C743.511 413.1 743.811 414.32 744.371 415.16C744.931 416 745.871 416.42 747.191 416.42ZM746.591 405.89C745.831 405.89 745.121 406.04 744.461 406.34C744.001 407.3 743.711 408.19 743.591 409.01C745.151 408.95 746.921 408.91 748.901 408.89C748.801 406.89 748.031 405.89 746.591 405.89ZM768.003 396.71C768.383 396.71 768.623 396.72 768.723 396.74C768.723 397.78 768.593 398.69 768.333 399.47C768.253 401.63 768.153 404.71 768.033 408.71C767.933 412.69 767.863 415.32 767.823 416.6C769.003 416.76 769.883 416.93 770.463 417.11V418.55C769.203 419.09 767.473 419.36 765.273 419.36C765.153 419.14 764.993 418.6 764.793 417.74C762.953 418.74 761.623 419.28 760.803 419.36C758.763 419.36 757.233 418.62 756.213 417.14C755.213 415.66 754.713 413.76 754.713 411.44C754.713 409.1 755.223 407.14 756.243 405.56C757.263 403.96 758.773 403.16 760.773 403.16C761.873 403.16 763.033 403.5 764.253 404.18L764.103 399.8C763.163 399.7 762.373 399.55 761.733 399.35C761.733 398.85 761.803 398.13 761.943 397.19C763.123 396.87 765.143 396.71 768.003 396.71ZM761.253 406.1C759.533 406.1 758.673 407.76 758.673 411.08C758.673 412.98 759.013 414.41 759.693 415.37C760.073 415.93 760.563 416.21 761.163 416.21C762.183 416.21 763.333 415.86 764.613 415.16L764.343 407.42C763.203 406.54 762.173 406.1 761.253 406.1ZM800.439 410.33C800.399 408.93 800.229 407.96 799.929 407.42C799.649 406.88 798.989 406.61 797.949 406.61C796.929 406.61 795.979 406.83 795.099 407.27C795.099 409.83 794.969 412.78 794.709 416.12L797.079 416.39C797.079 417.21 796.849 418.08 796.389 419H788.919L788.649 417.35C789.689 416.97 790.599 416.67 791.379 416.45L791.139 410.21C791.099 408.91 790.939 407.99 790.659 407.45C790.399 406.89 789.889 406.61 789.129 406.61C788.729 406.61 788.149 406.68 787.389 406.82C786.629 406.96 786.049 407.11 785.649 407.27C785.649 407.33 785.559 410.28 785.379 416.12L787.719 416.39C787.719 417.27 787.489 418.14 787.029 419H779.559L779.289 417.35C780.469 416.89 781.369 416.59 781.989 416.45L781.599 406.76C780.779 406.68 779.989 406.53 779.229 406.31L779.379 404.15C779.719 404.05 780.449 403.93 781.569 403.79C782.689 403.65 783.539 403.58 784.119 403.58C784.199 403.64 784.349 403.83 784.569 404.15C784.789 404.45 784.939 404.69 785.019 404.87C785.699 404.53 786.519 404.2 787.479 403.88C788.459 403.56 789.059 403.4 789.279 403.4C791.399 403.4 792.949 403.95 793.929 405.05C794.689 404.65 795.609 404.28 796.689 403.94C797.769 403.58 798.439 403.4 798.699 403.4C800.599 403.4 802.019 403.85 802.959 404.75C803.899 405.65 804.369 407.15 804.369 409.25C804.369 410.41 804.279 412.7 804.099 416.12L806.439 416.39C806.439 417.27 806.209 418.14 805.749 419H798.309L798.039 417.35C798.979 416.97 799.839 416.67 800.619 416.45C800.599 415.99 800.579 415.34 800.559 414.5C800.519 413.12 800.479 411.73 800.439 410.33ZM815.071 405.8C814.351 405.8 813.531 405.98 812.611 406.34C812.351 406.74 812.101 407.45 811.861 408.47C811.641 409.47 811.531 410.48 811.531 411.5C811.531 413.38 811.811 414.72 812.371 415.52C812.931 416.3 813.831 416.69 815.071 416.69C816.331 416.69 817.241 416.3 817.801 415.52C818.361 414.72 818.641 413.36 818.641 411.44C818.641 409.5 818.351 408.08 817.771 407.18C817.211 406.26 816.311 405.8 815.071 405.8ZM815.071 403.4C817.411 403.4 819.291 404.12 820.711 405.56C822.151 406.98 822.871 408.97 822.871 411.53C822.871 414.07 822.161 416.01 820.741 417.35C819.321 418.69 817.431 419.36 815.071 419.36C812.711 419.36 810.821 418.69 809.401 417.35C808.001 416.01 807.301 414.07 807.301 411.53C807.301 408.97 808.011 406.98 809.431 405.56C810.851 404.12 812.731 403.4 815.071 403.4ZM831.483 414.5L832.593 410.03L834.183 406.19C833.503 406.07 832.663 405.81 831.663 405.41L831.933 403.76H839.403C839.863 404.68 840.093 405.55 840.093 406.37C839.313 406.49 838.533 406.57 837.753 406.61C837.353 407.95 836.563 410.02 835.383 412.82C834.223 415.62 833.443 417.68 833.043 419H829.173L824.403 406.64L822.063 406.37C822.063 405.55 822.293 404.68 822.753 403.76H830.223L830.493 405.41C829.673 405.79 828.983 406.05 828.423 406.19L829.863 410L830.913 414.5H831.483ZM847.229 403.64C847.609 403.64 847.849 403.65 847.949 403.67C847.949 404.65 847.779 405.56 847.439 406.4C847.359 410.72 847.309 413.96 847.289 416.12L849.629 416.39C849.629 417.21 849.399 418.08 848.939 419H841.469L841.199 417.35C842.439 416.89 843.339 416.59 843.899 416.45L843.569 406.73C842.389 406.61 841.519 406.46 840.959 406.28C840.959 405.78 841.029 405.06 841.169 404.12C842.349 403.8 844.369 403.64 847.229 403.64ZM847.229 397.97C847.409 398.87 847.499 399.56 847.499 400.04C847.499 400.5 847.459 401.02 847.379 401.6C846.579 401.78 845.899 401.87 845.339 401.87C844.799 401.87 844.139 401.84 843.359 401.78C843.179 400.88 843.089 400.2 843.089 399.74C843.089 399.26 843.129 398.73 843.209 398.15C844.009 397.97 844.679 397.88 845.219 397.88C845.779 397.88 846.449 397.91 847.229 397.97ZM858.197 416.42C858.877 416.42 860.257 415.95 862.337 415.01C862.777 415.65 863.107 416.39 863.327 417.23C862.227 417.91 861.147 418.44 860.087 418.82C859.047 419.18 858.307 419.36 857.867 419.36C855.447 419.36 853.607 418.69 852.347 417.35C851.107 416.01 850.487 414.11 850.487 411.65C850.487 409.17 851.107 407.18 852.347 405.68C853.587 404.16 855.427 403.4 857.867 403.4C859.807 403.4 861.287 404.03 862.307 405.29C863.327 406.55 863.837 408.19 863.837 410.21C863.837 410.63 863.597 411.11 863.117 411.65L854.477 411.5C854.517 413.1 854.817 414.32 855.377 415.16C855.937 416 856.877 416.42 858.197 416.42ZM857.597 405.89C856.837 405.89 856.127 406.04 855.467 406.34C855.007 407.3 854.717 408.19 854.597 409.01C856.157 408.95 857.927 408.91 859.907 408.89C859.807 406.89 859.037 405.89 857.597 405.89ZM870.189 415.16C870.369 415.88 870.459 416.7 870.459 417.62C870.459 418.54 870.069 419.55 869.289 420.65C868.509 421.77 867.779 422.54 867.099 422.96C866.399 422.66 865.829 422.26 865.389 421.76C865.649 420.98 866.219 420.07 867.099 419.03L866.349 418.94C866.169 418.32 866.079 417.69 866.079 417.05C866.079 416.39 866.109 415.81 866.169 415.31C866.989 415.13 867.599 415.04 867.999 415.04C868.419 415.04 869.149 415.08 870.189 415.16ZM893.1 396.71C893.48 396.71 893.72 396.72 893.82 396.74C893.82 397.78 893.69 398.69 893.43 399.47C893.35 401.63 893.25 404.71 893.13 408.71C893.03 412.69 892.96 415.32 892.92 416.6C894.1 416.76 894.98 416.93 895.56 417.11V418.55C894.3 419.09 892.57 419.36 890.37 419.36C890.25 419.14 890.09 418.6 889.89 417.74C888.05 418.74 886.72 419.28 885.9 419.36C883.86 419.36 882.33 418.62 881.31 417.14C880.31 415.66 879.81 413.76 879.81 411.44C879.81 409.1 880.32 407.14 881.34 405.56C882.36 403.96 883.87 403.16 885.87 403.16C886.97 403.16 888.13 403.5 889.35 404.18L889.2 399.8C888.26 399.7 887.47 399.55 886.83 399.35C886.83 398.85 886.9 398.13 887.04 397.19C888.22 396.87 890.24 396.71 893.1 396.71ZM886.35 406.1C884.63 406.1 883.77 407.76 883.77 411.08C883.77 412.98 884.11 414.41 884.79 415.37C885.17 415.93 885.66 416.21 886.26 416.21C887.28 416.21 888.43 415.86 889.71 415.16L889.44 407.42C888.3 406.54 887.27 406.1 886.35 406.1ZM902.263 419.36C900.563 419.36 899.243 419.01 898.303 418.31C897.383 417.61 896.923 416.43 896.923 414.77C896.923 413.19 897.473 411.9 898.573 410.9C899.213 410.32 900.103 409.98 901.243 409.88C902.383 409.78 903.953 409.73 905.953 409.73V409.25C905.953 408.03 905.753 407.14 905.353 406.58C904.973 406 904.293 405.71 903.313 405.71C902.813 405.71 902.363 405.81 901.963 406.01L901.243 408.62L899.023 408.56C898.523 407.8 898.253 406.59 898.213 404.93C898.613 404.73 899.553 404.43 901.033 404.03C902.513 403.61 903.463 403.4 903.883 403.4C906.043 403.4 907.613 403.85 908.593 404.75C909.573 405.63 910.063 407.04 910.063 408.98C910.063 410.9 909.973 413.44 909.793 416.6C910.933 416.7 911.813 416.87 912.433 417.11C912.453 417.35 912.463 417.64 912.463 417.98L912.433 418.64C910.993 419.12 909.543 419.36 908.083 419.36C907.703 419.36 907.423 419.35 907.243 419.33C906.943 418.73 906.763 418.01 906.703 417.17H906.553C906.173 417.53 905.503 417.99 904.543 418.55C903.603 419.09 902.843 419.36 902.263 419.36ZM900.763 414.95C900.763 415.61 900.963 416.1 901.363 416.42C901.783 416.72 902.253 416.87 902.773 416.87C903.293 416.87 903.913 416.64 904.633 416.18C905.353 415.7 905.933 415.27 906.373 414.89L906.223 412.13C904.643 412.21 903.453 412.36 902.653 412.58C901.393 412.84 900.763 413.63 900.763 414.95ZM919.035 403.64C919.415 403.64 919.655 403.65 919.755 403.67C919.755 404.65 919.585 405.56 919.245 406.4C919.165 410.72 919.115 413.96 919.095 416.12L921.435 416.39C921.435 417.21 921.205 418.08 920.745 419H913.275L913.005 417.35C914.245 416.89 915.145 416.59 915.705 416.45L915.375 406.73C914.195 406.61 913.325 406.46 912.765 406.28C912.765 405.78 912.835 405.06 912.975 404.12C914.155 403.8 916.175 403.64 919.035 403.64ZM919.035 397.97C919.215 398.87 919.305 399.56 919.305 400.04C919.305 400.5 919.265 401.02 919.185 401.6C918.385 401.78 917.705 401.87 917.145 401.87C916.605 401.87 915.945 401.84 915.165 401.78C914.985 400.88 914.895 400.2 914.895 399.74C914.895 399.26 914.935 398.73 915.015 398.15C915.815 397.97 916.485 397.88 917.025 397.88C917.585 397.88 918.255 397.91 919.035 397.97ZM927.934 396.71C928.314 396.71 928.554 396.72 928.654 396.74C928.654 397.78 928.524 398.69 928.264 399.47C928.244 400.71 928.214 402.46 928.174 404.72C928.094 409.68 928.034 413.48 927.994 416.12L930.334 416.39C930.334 417.21 930.104 418.08 929.644 419H922.174L921.904 417.35C923.144 416.89 924.044 416.59 924.604 416.45L924.034 399.8C923.094 399.7 922.304 399.55 921.664 399.35C921.664 398.61 921.734 397.89 921.874 397.19C923.054 396.87 925.074 396.71 927.934 396.71ZM935.011 426.26C934.431 426.26 933.791 426.16 933.091 425.96C932.391 425.76 931.641 425.46 930.841 425.06C930.961 422.76 931.071 421.39 931.171 420.95C931.931 420.75 932.551 420.65 933.031 420.65C933.531 420.65 933.851 420.66 933.991 420.68L934.951 423.68L935.221 423.65C935.681 423.59 936.151 423.04 936.631 422C937.111 420.96 937.461 419.96 937.681 419H936.421L931.981 406.64L929.641 406.37C929.641 405.55 929.871 404.68 930.331 403.76H937.801L938.071 405.41C937.251 405.79 936.561 406.05 936.001 406.19L938.281 413.3L938.551 414.59H939.211L941.761 406.19C941.081 406.07 940.241 405.81 939.241 405.41L939.511 403.76H946.981C947.441 404.68 947.671 405.55 947.671 406.37C946.891 406.49 946.111 406.57 945.331 406.61C943.531 411.89 942.121 415.97 941.101 418.85C940.101 421.73 939.191 423.68 938.371 424.7C937.551 425.74 936.431 426.26 935.011 426.26ZM953.277 415.19C953.457 415.91 953.547 416.53 953.547 417.05C953.547 417.55 953.517 418.12 953.457 418.76C952.777 418.94 952.127 419.03 951.507 419.03C950.887 419.03 950.207 419 949.467 418.94C949.267 418.14 949.167 417.56 949.167 417.2C949.167 416.82 949.207 416.21 949.287 415.37C949.947 415.19 950.577 415.1 951.177 415.1C951.797 415.1 952.497 415.13 953.277 415.19Z" fill="#410F0F"/>
<path d="M636.57 419.36C634.87 419.36 633.55 419.01 632.61 418.31C631.69 417.61 631.23 416.43 631.23 414.77C631.23 413.19 631.78 411.9 632.88 410.9C633.52 410.32 634.41 409.98 635.55 409.88C636.69 409.78 638.26 409.73 640.26 409.73V409.25C640.26 408.03 640.06 407.14 639.66 406.58C639.28 406 638.6 405.71 637.62 405.71C637.12 405.71 636.67 405.81 636.27 406.01L635.55 408.62L633.33 408.56C632.83 407.8 632.56 406.59 632.52 404.93C632.92 404.73 633.86 404.43 635.34 404.03C636.82 403.61 637.77 403.4 638.19 403.4C640.35 403.4 641.92 403.85 642.9 404.75C643.88 405.63 644.37 407.04 644.37 408.98C644.37 410.9 644.28 413.44 644.1 416.6C645.24 416.7 646.12 416.87 646.74 417.11C646.76 417.35 646.77 417.64 646.77 417.98L646.74 418.64C645.3 419.12 643.85 419.36 642.39 419.36C642.01 419.36 641.73 419.35 641.55 419.33C641.25 418.73 641.07 418.01 641.01 417.17H640.86C640.48 417.53 639.81 417.99 638.85 418.55C637.91 419.09 637.15 419.36 636.57 419.36ZM635.07 414.95C635.07 415.61 635.27 416.1 635.67 416.42C636.09 416.72 636.56 416.87 637.08 416.87C637.6 416.87 638.22 416.64 638.94 416.18C639.66 415.7 640.24 415.27 640.68 414.89L640.53 412.13C638.95 412.21 637.76 412.36 636.96 412.58C635.7 412.84 635.07 413.63 635.07 414.95Z" fill="white"/>
<path d="M641.19 256.39C641.55 255.15 642.89 250.9 645.21 243.64L642.54 242.83L642.78 241H650.55C650.91 241.72 651.1 242.51 651.12 243.37L649.26 243.64L643.29 262H639.3L632.85 243.64L630.18 242.83L630.42 241H638.19C638.55 241.72 638.74 242.51 638.76 243.37C637.9 243.51 637.31 243.6 636.99 243.64L641.19 256.39ZM659.084 246.64C659.464 246.64 659.704 246.65 659.804 246.67C659.804 247.65 659.634 248.56 659.294 249.4C659.214 253.72 659.164 256.96 659.144 259.12L661.484 259.39C661.484 260.21 661.254 261.08 660.794 262H653.324L653.054 260.35C654.294 259.89 655.194 259.59 655.754 259.45L655.424 249.73C654.244 249.61 653.374 249.46 652.814 249.28C652.814 248.78 652.884 248.06 653.024 247.12C654.204 246.8 656.224 246.64 659.084 246.64ZM659.084 240.97C659.264 241.87 659.354 242.56 659.354 243.04C659.354 243.5 659.314 244.02 659.234 244.6C658.434 244.78 657.754 244.87 657.194 244.87C656.654 244.87 655.994 244.84 655.214 244.78C655.034 243.88 654.944 243.2 654.944 242.74C654.944 242.26 654.984 241.73 655.064 241.15C655.864 240.97 656.534 240.88 657.074 240.88C657.634 240.88 658.304 240.91 659.084 240.97ZM670.053 259.42C670.733 259.42 672.113 258.95 674.193 258.01C674.633 258.65 674.963 259.39 675.183 260.23C674.083 260.91 673.003 261.44 671.943 261.82C670.903 262.18 670.163 262.36 669.723 262.36C667.303 262.36 665.463 261.69 664.203 260.35C662.963 259.01 662.343 257.11 662.343 254.65C662.343 252.17 662.963 250.18 664.203 248.68C665.443 247.16 667.283 246.4 669.723 246.4C671.663 246.4 673.143 247.03 674.163 248.29C675.183 249.55 675.693 251.19 675.693 253.21C675.693 253.63 675.453 254.11 674.973 254.65L666.333 254.5C666.373 256.1 666.673 257.32 667.233 258.16C667.793 259 668.733 259.42 670.053 259.42ZM669.453 248.89C668.693 248.89 667.983 249.04 667.323 249.34C666.863 250.3 666.573 251.19 666.453 252.01C668.013 251.95 669.783 251.91 671.763 251.89C671.663 249.89 670.893 248.89 669.453 248.89ZM687.504 246.76C687.764 246.74 688.264 246.73 689.004 246.73C689.764 246.73 690.444 246.75 691.044 246.79L692.964 252.97L693.894 257.2H694.404L695.274 253.03L696.414 249.19C695.734 249.07 694.894 248.81 693.894 248.41L694.164 246.76H701.634C702.094 247.68 702.324 248.55 702.324 249.37C701.544 249.49 700.764 249.57 699.984 249.61C699.524 251.17 698.814 253.47 697.854 256.51C696.914 259.53 696.344 261.36 696.144 262H692.064L689.274 252.76H689.154L686.274 262H682.404L678.534 249.64L676.194 249.37C676.194 248.55 676.424 247.68 676.884 246.76H684.354L684.624 248.41C683.804 248.79 683.114 249.05 682.554 249.19L683.544 253L684.294 257.2H684.774L685.644 252.97L687.504 246.76ZM724.468 239.71C724.848 239.71 725.088 239.72 725.188 239.74C725.188 240.78 725.058 241.69 724.798 242.47C724.718 244.63 724.618 247.71 724.498 251.71C724.398 255.69 724.328 258.32 724.288 259.6C725.468 259.76 726.348 259.93 726.928 260.11V261.55C725.668 262.09 723.938 262.36 721.738 262.36C721.618 262.14 721.458 261.6 721.258 260.74C719.418 261.74 718.088 262.28 717.268 262.36C715.228 262.36 713.698 261.62 712.678 260.14C711.678 258.66 711.178 256.76 711.178 254.44C711.178 252.1 711.688 250.14 712.708 248.56C713.728 246.96 715.238 246.16 717.238 246.16C718.338 246.16 719.498 246.5 720.718 247.18L720.568 242.8C719.628 242.7 718.838 242.55 718.198 242.35C718.198 241.85 718.268 241.13 718.408 240.19C719.588 239.87 721.608 239.71 724.468 239.71ZM717.718 249.1C715.998 249.1 715.138 250.76 715.138 254.08C715.138 255.98 715.478 257.41 716.158 258.37C716.538 258.93 717.028 259.21 717.628 259.21C718.648 259.21 719.798 258.86 721.078 258.16L720.808 250.42C719.668 249.54 718.638 249.1 717.718 249.1ZM735.971 259.42C736.651 259.42 738.031 258.95 740.111 258.01C740.551 258.65 740.881 259.39 741.101 260.23C740.001 260.91 738.921 261.44 737.861 261.82C736.821 262.18 736.081 262.36 735.641 262.36C733.221 262.36 731.381 261.69 730.121 260.35C728.881 259.01 728.261 257.11 728.261 254.65C728.261 252.17 728.881 250.18 730.121 248.68C731.361 247.16 733.201 246.4 735.641 246.4C737.581 246.4 739.061 247.03 740.081 248.29C741.101 249.55 741.611 251.19 741.611 253.21C741.611 253.63 741.371 254.11 740.891 254.65L732.251 254.5C732.291 256.1 732.591 257.32 733.151 258.16C733.711 259 734.651 259.42 735.971 259.42ZM735.371 248.89C734.611 248.89 733.901 249.04 733.241 249.34C732.781 250.3 732.491 251.19 732.371 252.01C733.931 251.95 735.701 251.91 737.681 251.89C737.581 249.89 736.811 248.89 735.371 248.89ZM746.972 262.36L746.312 262.33C746.192 262.11 746.032 261.7 745.832 261.1C745.632 260.5 745.522 260.05 745.502 259.75C745.402 257.77 745.292 254.34 745.172 249.46H743.072L743.162 247.75C743.622 247.43 744.172 247.14 744.812 246.88L747.242 243.04C748.022 243.12 748.632 243.33 749.072 243.67L749.042 246.52C750.302 246.56 751.472 246.68 752.552 246.88C752.552 247.68 752.302 248.54 751.802 249.46H749.012C748.932 253.66 748.882 256.81 748.862 258.91C749.662 258.99 750.752 259.22 752.132 259.6L752.102 261.16C751.762 261.38 751.002 261.64 749.822 261.94C748.662 262.22 747.712 262.36 746.972 262.36ZM759.412 262.36C757.712 262.36 756.392 262.01 755.452 261.31C754.532 260.61 754.072 259.43 754.072 257.77C754.072 256.19 754.622 254.9 755.722 253.9C756.362 253.32 757.252 252.98 758.392 252.88C759.532 252.78 761.102 252.73 763.102 252.73V252.25C763.102 251.03 762.902 250.14 762.502 249.58C762.122 249 761.442 248.71 760.462 248.71C759.962 248.71 759.512 248.81 759.112 249.01L758.392 251.62L756.172 251.56C755.672 250.8 755.402 249.59 755.362 247.93C755.762 247.73 756.702 247.43 758.182 247.03C759.662 246.61 760.612 246.4 761.032 246.4C763.192 246.4 764.762 246.85 765.742 247.75C766.722 248.63 767.212 250.04 767.212 251.98C767.212 253.9 767.122 256.44 766.942 259.6C768.082 259.7 768.962 259.87 769.582 260.11C769.602 260.35 769.612 260.64 769.612 260.98L769.582 261.64C768.142 262.12 766.692 262.36 765.232 262.36C764.852 262.36 764.572 262.35 764.392 262.33C764.092 261.73 763.912 261.01 763.852 260.17H763.702C763.322 260.53 762.652 260.99 761.692 261.55C760.752 262.09 759.992 262.36 759.412 262.36ZM757.912 257.95C757.912 258.61 758.112 259.1 758.512 259.42C758.932 259.72 759.402 259.87 759.922 259.87C760.442 259.87 761.062 259.64 761.782 259.18C762.502 258.7 763.082 258.27 763.522 257.89L763.372 255.13C761.792 255.21 760.602 255.36 759.802 255.58C758.542 255.84 757.912 256.63 757.912 257.95ZM776.184 246.64C776.564 246.64 776.804 246.65 776.904 246.67C776.904 247.65 776.734 248.56 776.394 249.4C776.314 253.72 776.264 256.96 776.244 259.12L778.584 259.39C778.584 260.21 778.354 261.08 777.894 262H770.424L770.154 260.35C771.394 259.89 772.294 259.59 772.854 259.45L772.524 249.73C771.344 249.61 770.474 249.46 769.914 249.28C769.914 248.78 769.984 248.06 770.124 247.12C771.304 246.8 773.324 246.64 776.184 246.64ZM776.184 240.97C776.364 241.87 776.454 242.56 776.454 243.04C776.454 243.5 776.414 244.02 776.334 244.6C775.534 244.78 774.854 244.87 774.294 244.87C773.754 244.87 773.094 244.84 772.314 244.78C772.134 243.88 772.044 243.2 772.044 242.74C772.044 242.26 772.084 241.73 772.164 241.15C772.964 240.97 773.634 240.88 774.174 240.88C774.734 240.88 775.404 240.91 776.184 240.97ZM785.082 239.71C785.462 239.71 785.702 239.72 785.802 239.74C785.802 240.78 785.672 241.69 785.412 242.47C785.392 243.71 785.362 245.46 785.322 247.72C785.242 252.68 785.182 256.48 785.142 259.12L787.482 259.39C787.482 260.21 787.252 261.08 786.792 262H779.322L779.052 260.35C780.292 259.89 781.192 259.59 781.752 259.45L781.182 242.8C780.242 242.7 779.452 242.55 778.812 242.35C778.812 241.61 778.882 240.89 779.022 240.19C780.202 239.87 782.222 239.71 785.082 239.71ZM799.06 247.69L799.09 248.62C799.09 250.18 798.97 251.2 798.73 251.68C798.07 251.92 797.15 252.04 795.97 252.04L795.01 249.01C794.75 248.91 794.39 248.86 793.93 248.86C793.47 248.86 793.09 249 792.79 249.28C792.51 249.56 792.37 249.89 792.37 250.27C792.37 250.65 792.52 251 792.82 251.32C793.12 251.62 793.43 251.86 793.75 252.04C794.07 252.22 794.53 252.46 795.13 252.76C795.75 253.04 796.21 253.26 796.51 253.42C796.83 253.58 797.23 253.82 797.71 254.14C798.21 254.46 798.59 254.76 798.85 255.04C799.49 255.8 799.81 256.63 799.81 257.53C799.81 259.07 799.22 260.26 798.04 261.1C796.88 261.94 795.45 262.36 793.75 262.36C792.85 262.36 791.86 262.2 790.78 261.88C789.72 261.56 788.82 261.13 788.08 260.59C788.08 259.15 788.22 257.81 788.5 256.57C789.3 256.47 789.95 256.42 790.45 256.42C790.95 256.42 791.29 256.43 791.47 256.45L791.83 259.36C792.33 259.54 792.93 259.63 793.63 259.63C794.33 259.63 794.88 259.49 795.28 259.21C795.7 258.93 795.91 258.54 795.91 258.04C795.91 257.52 795.68 257.09 795.22 256.75C794.76 256.41 794.13 256.06 793.33 255.7C792.53 255.32 791.91 255.01 791.47 254.77C791.03 254.51 790.56 254.18 790.06 253.78C789.04 253 788.53 252.04 788.53 250.9C788.53 249.48 789.02 248.38 790 247.6C791 246.8 792.34 246.4 794.02 246.4C795.7 246.4 797.38 246.83 799.06 247.69ZM817.567 242.32L817.027 242.29C816.387 242.29 815.937 242.61 815.677 243.25C815.417 243.87 815.277 244.96 815.257 246.52C816.457 246.54 817.397 246.63 818.077 246.79C818.117 246.79 818.357 246.82 818.797 246.88C818.737 247.78 818.497 248.64 818.077 249.46H815.257C815.177 253.74 815.127 256.95 815.107 259.09C817.087 259.23 818.187 259.41 818.407 259.63C818.407 260.29 818.157 261.08 817.657 262H809.317L809.047 260.35C810.607 259.79 811.507 259.49 811.747 259.45L811.417 249.46H809.317L809.407 247.75C809.927 247.39 810.597 247.13 811.417 246.97V246.16C811.417 243.8 811.877 242.08 812.797 241C813.637 240.02 814.857 239.53 816.457 239.53C818.077 239.53 819.787 239.97 821.587 240.85L821.617 241.33C821.617 242.43 821.477 243.66 821.197 245.02C820.597 245.18 820.047 245.26 819.547 245.26C819.047 245.26 818.677 245.24 818.437 245.2L817.567 242.32ZM828.342 248.8C827.622 248.8 826.802 248.98 825.882 249.34C825.622 249.74 825.372 250.45 825.132 251.47C824.912 252.47 824.802 253.48 824.802 254.5C824.802 256.38 825.082 257.72 825.642 258.52C826.202 259.3 827.102 259.69 828.342 259.69C829.602 259.69 830.512 259.3 831.072 258.52C831.632 257.72 831.912 256.36 831.912 254.44C831.912 252.5 831.622 251.08 831.042 250.18C830.482 249.26 829.582 248.8 828.342 248.8ZM828.342 246.4C830.682 246.4 832.562 247.12 833.982 248.56C835.422 249.98 836.142 251.97 836.142 254.53C836.142 257.07 835.432 259.01 834.012 260.35C832.592 261.69 830.702 262.36 828.342 262.36C825.982 262.36 824.092 261.69 822.672 260.35C821.272 259.01 820.572 257.07 820.572 254.53C820.572 251.97 821.282 249.98 822.702 248.56C824.122 247.12 826.002 246.4 828.342 246.4ZM845.415 249.64C845.375 249.54 845.175 249.49 844.815 249.49C844.455 249.49 843.835 249.76 842.955 250.3C842.875 254.22 842.825 257.16 842.805 259.12L845.145 259.42C845.145 260.28 844.915 261.14 844.455 262H836.985L836.715 260.35C837.955 259.89 838.855 259.59 839.415 259.45L839.085 249.73C838.045 249.65 837.175 249.5 836.475 249.28L836.685 247.12C837.225 246.88 839.175 246.72 842.535 246.64C842.715 246.82 842.805 247.17 842.805 247.69C844.565 246.83 845.675 246.4 846.135 246.4C846.615 246.4 847.195 246.52 847.875 246.76C848.575 246.98 849.105 247.22 849.465 247.48V247.99C849.465 249.63 849.265 251.15 848.865 252.55C848.525 252.69 848.075 252.76 847.515 252.76C846.955 252.76 846.435 252.73 845.955 252.67C845.895 252.41 845.715 251.4 845.415 249.64ZM641.97 286.69L642 287.62C642 289.18 641.88 290.2 641.64 290.68C640.98 290.92 640.06 291.04 638.88 291.04L637.92 288.01C637.66 287.91 637.3 287.86 636.84 287.86C636.38 287.86 636 288 635.7 288.28C635.42 288.56 635.28 288.89 635.28 289.27C635.28 289.65 635.43 290 635.73 290.32C636.03 290.62 636.34 290.86 636.66 291.04C636.98 291.22 637.44 291.46 638.04 291.76C638.66 292.04 639.12 292.26 639.42 292.42C639.74 292.58 640.14 292.82 640.62 293.14C641.12 293.46 641.5 293.76 641.76 294.04C642.4 294.8 642.72 295.63 642.72 296.53C642.72 298.07 642.13 299.26 640.95 300.1C639.79 300.94 638.36 301.36 636.66 301.36C635.76 301.36 634.77 301.2 633.69 300.88C632.63 300.56 631.73 300.13 630.99 299.59C630.99 298.15 631.13 296.81 631.41 295.57C632.21 295.47 632.86 295.42 633.36 295.42C633.86 295.42 634.2 295.43 634.38 295.45L634.74 298.36C635.24 298.54 635.84 298.63 636.54 298.63C637.24 298.63 637.79 298.49 638.19 298.21C638.61 297.93 638.82 297.54 638.82 297.04C638.82 296.52 638.59 296.09 638.13 295.75C637.67 295.41 637.04 295.06 636.24 294.7C635.44 294.32 634.82 294.01 634.38 293.77C633.94 293.51 633.47 293.18 632.97 292.78C631.95 292 631.44 291.04 631.44 289.9C631.44 288.48 631.93 287.38 632.91 286.6C633.91 285.8 635.25 285.4 636.93 285.4C638.61 285.4 640.29 285.83 641.97 286.69ZM652.474 298.42C653.154 298.42 654.534 297.95 656.614 297.01C657.054 297.65 657.384 298.39 657.604 299.23C656.504 299.91 655.424 300.44 654.364 300.82C653.324 301.18 652.584 301.36 652.144 301.36C649.724 301.36 647.884 300.69 646.624 299.35C645.384 298.01 644.764 296.11 644.764 293.65C644.764 291.17 645.384 289.18 646.624 287.68C647.864 286.16 649.704 285.4 652.144 285.4C654.084 285.4 655.564 286.03 656.584 287.29C657.604 288.55 658.114 290.19 658.114 292.21C658.114 292.63 657.874 293.11 657.394 293.65L648.754 293.5C648.794 295.1 649.094 296.32 649.654 297.16C650.214 298 651.154 298.42 652.474 298.42ZM651.874 287.89C651.114 287.89 650.404 288.04 649.744 288.34C649.284 289.3 648.994 290.19 648.874 291.01C650.434 290.95 652.204 290.91 654.184 290.89C654.084 288.89 653.314 287.89 651.874 287.89ZM665.756 278.71C666.136 278.71 666.376 278.72 666.476 278.74C666.476 279.78 666.346 280.69 666.086 281.47C666.066 282.71 666.036 284.46 665.996 286.72C665.916 291.68 665.856 295.48 665.816 298.12L668.156 298.39C668.156 299.21 667.926 300.08 667.466 301H659.996L659.726 299.35C660.966 298.89 661.866 298.59 662.426 298.45L661.856 281.8C660.916 281.7 660.126 281.55 659.486 281.35C659.486 280.61 659.556 279.89 659.696 279.19C660.876 278.87 662.896 278.71 665.756 278.71ZM676.674 298.42C677.354 298.42 678.734 297.95 680.814 297.01C681.254 297.65 681.584 298.39 681.804 299.23C680.704 299.91 679.624 300.44 678.564 300.82C677.524 301.18 676.784 301.36 676.344 301.36C673.924 301.36 672.084 300.69 670.824 299.35C669.584 298.01 668.964 296.11 668.964 293.65C668.964 291.17 669.584 289.18 670.824 287.68C672.064 286.16 673.904 285.4 676.344 285.4C678.284 285.4 679.764 286.03 680.784 287.29C681.804 288.55 682.314 290.19 682.314 292.21C682.314 292.63 682.074 293.11 681.594 293.65L672.954 293.5C672.994 295.1 673.294 296.32 673.854 297.16C674.414 298 675.354 298.42 676.674 298.42ZM676.074 287.89C675.314 287.89 674.604 288.04 673.944 288.34C673.484 289.3 673.194 290.19 673.074 291.01C674.634 290.95 676.404 290.91 678.384 290.89C678.284 288.89 677.514 287.89 676.074 287.89ZM692.325 287.89L691.845 287.86C690.725 287.86 689.825 288.25 689.145 289.03C688.485 289.79 688.155 291.08 688.155 292.9C688.155 294.7 688.405 296.07 688.905 297.01C689.425 297.95 690.415 298.42 691.875 298.42C692.555 298.42 693.995 297.96 696.195 297.04C696.695 297.74 696.965 298.47 697.005 299.23C695.905 299.91 694.825 300.44 693.765 300.82C692.725 301.2 691.985 301.39 691.545 301.39C689.085 301.39 687.245 300.72 686.025 299.38C684.805 298.02 684.195 296.12 684.195 293.68C684.195 288.16 686.685 285.4 691.665 285.4C692.525 285.4 693.405 285.51 694.305 285.73C695.225 285.93 695.945 286.19 696.465 286.51C696.405 288.51 696.185 289.96 695.805 290.86C695.145 291.02 694.215 291.1 693.015 291.1L692.325 287.89ZM701.826 301.36L701.166 301.33C701.046 301.11 700.886 300.7 700.686 300.1C700.486 299.5 700.376 299.05 700.356 298.75C700.256 296.77 700.146 293.34 700.026 288.46H697.926L698.016 286.75C698.476 286.43 699.026 286.14 699.666 285.88L702.096 282.04C702.876 282.12 703.486 282.33 703.926 282.67L703.896 285.52C705.156 285.56 706.326 285.68 707.406 285.88C707.406 286.68 707.156 287.54 706.656 288.46H703.866C703.786 292.66 703.736 295.81 703.716 297.91C704.516 297.99 705.606 298.22 706.986 298.6L706.956 300.16C706.616 300.38 705.856 300.64 704.676 300.94C703.516 301.22 702.566 301.36 701.826 301.36ZM731.058 294.88L733.818 280H741.618C741.778 280.86 741.858 281.47 741.858 281.83C740.898 282.17 740.068 282.43 739.368 282.61L741.498 298.12L743.568 298.39C743.568 299.21 743.338 300.08 742.878 301H735.588L735.318 299.35C736.438 298.89 737.278 298.6 737.838 298.48L735.528 286.24L732.468 299.53H729.408L724.668 284.86L722.118 298.12L724.188 298.39C724.188 299.21 723.958 300.08 723.498 301H716.208L715.938 299.35C717.058 298.89 717.898 298.6 718.458 298.48L720.588 282.61L718.098 281.83L718.338 280H726.738L730.758 294.88H731.058ZM753.489 287.8C752.769 287.8 751.949 287.98 751.029 288.34C750.769 288.74 750.519 289.45 750.279 290.47C750.059 291.47 749.949 292.48 749.949 293.5C749.949 295.38 750.229 296.72 750.789 297.52C751.349 298.3 752.249 298.69 753.489 298.69C754.749 298.69 755.659 298.3 756.219 297.52C756.779 296.72 757.059 295.36 757.059 293.44C757.059 291.5 756.769 290.08 756.189 289.18C755.629 288.26 754.729 287.8 753.489 287.8ZM753.489 285.4C755.829 285.4 757.709 286.12 759.129 287.56C760.569 288.98 761.289 290.97 761.289 293.53C761.289 296.07 760.579 298.01 759.159 299.35C757.739 300.69 755.849 301.36 753.489 301.36C751.129 301.36 749.239 300.69 747.819 299.35C746.419 298.01 745.719 296.07 745.719 293.53C745.719 290.97 746.429 288.98 747.849 287.56C749.269 286.12 751.149 285.4 753.489 285.4ZM769.901 296.5L771.011 292.03L772.601 288.19C771.921 288.07 771.081 287.81 770.081 287.41L770.351 285.76H777.821C778.281 286.68 778.511 287.55 778.511 288.37C777.731 288.49 776.951 288.57 776.171 288.61C775.771 289.95 774.981 292.02 773.801 294.82C772.641 297.62 771.861 299.68 771.461 301H767.591L762.821 288.64L760.481 288.37C760.481 287.55 760.711 286.68 761.171 285.76H768.641L768.911 287.41C768.091 287.79 767.401 288.05 766.841 288.19L768.281 292L769.331 296.5H769.901ZM785.647 285.64C786.027 285.64 786.267 285.65 786.367 285.67C786.367 286.65 786.197 287.56 785.857 288.4C785.777 292.72 785.727 295.96 785.707 298.12L788.047 298.39C788.047 299.21 787.817 300.08 787.357 301H779.887L779.617 299.35C780.857 298.89 781.757 298.59 782.317 298.45L781.987 288.73C780.807 288.61 779.937 288.46 779.377 288.28C779.377 287.78 779.447 287.06 779.587 286.12C780.767 285.8 782.787 285.64 785.647 285.64ZM785.647 279.97C785.827 280.87 785.917 281.56 785.917 282.04C785.917 282.5 785.877 283.02 785.797 283.6C784.997 283.78 784.317 283.87 783.757 283.87C783.217 283.87 782.557 283.84 781.777 283.78C781.597 282.88 781.507 282.2 781.507 281.74C781.507 281.26 781.547 280.73 781.627 280.15C782.427 279.97 783.097 279.88 783.637 279.88C784.197 279.88 784.867 279.91 785.647 279.97ZM796.615 298.42C797.295 298.42 798.675 297.95 800.755 297.01C801.195 297.65 801.525 298.39 801.745 299.23C800.645 299.91 799.565 300.44 798.505 300.82C797.465 301.18 796.725 301.36 796.285 301.36C793.865 301.36 792.025 300.69 790.765 299.35C789.525 298.01 788.905 296.11 788.905 293.65C788.905 291.17 789.525 289.18 790.765 287.68C792.005 286.16 793.845 285.4 796.285 285.4C798.225 285.4 799.705 286.03 800.725 287.29C801.745 288.55 802.255 290.19 802.255 292.21C802.255 292.63 802.015 293.11 801.535 293.65L792.895 293.5C792.935 295.1 793.235 296.32 793.795 297.16C794.355 298 795.295 298.42 796.615 298.42ZM796.015 287.89C795.255 287.89 794.545 288.04 793.885 288.34C793.425 289.3 793.135 290.19 793.015 291.01C794.575 290.95 796.345 290.91 798.325 290.89C798.225 288.89 797.455 287.89 796.015 287.89ZM808.697 297.19C808.877 297.91 808.967 298.53 808.967 299.05C808.967 299.55 808.937 300.12 808.877 300.76C808.197 300.94 807.547 301.03 806.927 301.03C806.307 301.03 805.627 301 804.887 300.94C804.687 300.14 804.587 299.56 804.587 299.2C804.587 298.82 804.627 298.21 804.707 297.37C805.367 297.19 805.997 297.1 806.597 297.1C807.217 297.1 807.917 297.13 808.697 297.19Z" fill="#410F0F"/>
<defs>
<linearGradient id="paint0_linear_82_26" x1="266.5" y1="517" x2="512" y2="270.5" gradientUnits="userSpaceOnUse">
<stop offset="0.9998" stop-color="#410F0F"/>
<stop offset="0.9999" stop-color="#C0B0B0"/>
<stop offset="1" stop-color="white"/>
</linearGradient>
</defs>
</svg>
